<?xml version="1.0" encoding="UTF-8"?>
<svg version="1.1" xmlns="http://www.w3.org/2000/svg" width="788" height="480">
<path d="M0 0 C2.69583777 0.67784021 5.2699535 0.57916272 8.03515625 0.51171875 C8.36515625 0.84171875 8.69515625 1.17171875 9.03515625 1.51171875 C10.76154549 1.6705348 12.49175555 1.78861102 14.22265625 1.88671875 C18.87322012 2.25323606 21.90590625 3.30305014 26.03515625 5.51171875 C28.03478653 5.55017318 30.03567258 5.55716156 32.03515625 5.51171875 C32.69515625 6.17171875 33.35515625 6.83171875 34.03515625 7.51171875 C36.11754145 8.20584715 38.22542138 8.82612841 40.34765625 9.38671875 C43.85953499 10.45813938 46.78760756 11.82028714 50.03515625 13.51171875 C51.21078125 14.00671875 52.38640625 14.50171875 53.59765625 15.01171875 C56.61105516 16.32665646 59.33930946 17.63279523 62.03515625 19.51171875 C62.03515625 20.17171875 62.03515625 20.83171875 62.03515625 21.51171875 C64.51015625 22.00671875 64.51015625 22.00671875 67.03515625 22.51171875 C67.36515625 23.83171875 67.69515625 25.15171875 68.03515625 26.51171875 C69.35515625 26.84171875 70.67515625 27.17171875 72.03515625 27.51171875 C72.03515625 28.50171875 72.03515625 29.49171875 72.03515625 30.51171875 C74.51015625 31.00671875 74.51015625 31.00671875 77.03515625 31.51171875 C77.03515625 32.17171875 77.03515625 32.83171875 77.03515625 33.51171875 C77.69515625 33.51171875 78.35515625 33.51171875 79.03515625 33.51171875 C79.03515625 34.17171875 79.03515625 34.83171875 79.03515625 35.51171875 C80.02515625 35.84171875 81.01515625 36.17171875 82.03515625 36.51171875 C82.03515625 37.17171875 82.03515625 37.83171875 82.03515625 38.51171875 C83.35515625 38.84171875 84.67515625 39.17171875 86.03515625 39.51171875 C85.70515625 40.17171875 85.37515625 40.83171875 85.03515625 41.51171875 C86.02515625 41.51171875 87.01515625 41.51171875 88.03515625 41.51171875 C88.03515625 42.83171875 88.03515625 44.15171875 88.03515625 45.51171875 C88.59203125 45.55296875 89.14890625 45.59421875 89.72265625 45.63671875 C93.31253465 46.99505112 94.86254948 49.43385916 97.03515625 52.51171875 C97.03515625 53.83171875 97.03515625 55.15171875 97.03515625 56.51171875 C97.69515625 56.51171875 98.35515625 56.51171875 99.03515625 56.51171875 C99.36515625 58.16171875 99.69515625 59.81171875 100.03515625 61.51171875 C100.69515625 61.51171875 101.35515625 61.51171875 102.03515625 61.51171875 C104.63969067 65.82267228 106.6468535 69.93416528 108.31640625 74.6796875 C109.03438631 76.68480231 109.03438631 76.68480231 110.59765625 78.94921875 C112.3213441 82.0218797 112.8827963 84.87669472 113.5703125 88.30859375 C114.40295909 92.25491875 115.84116298 95.9807898 117.22265625 99.76171875 C118.03515625 102.51171875 118.03515625 102.51171875 117.03515625 104.51171875 C117.69515625 104.84171875 118.35515625 105.17171875 119.03515625 105.51171875 C118.84953125 106.10984375 118.66390625 106.70796875 118.47265625 107.32421875 C117.81421938 109.67580637 117.81421938 109.67580637 119.03515625 112.51171875 C118.70515625 113.17171875 118.37515625 113.83171875 118.03515625 114.51171875 C118.69515625 114.51171875 119.35515625 114.51171875 120.03515625 114.51171875 C120.2185146 134.35516717 120.2185146 134.35516717 119.15625 141.69921875 C118.90428233 143.75037239 118.90428233 143.75037239 120.03515625 146.51171875 C119.38479811 147.85308242 118.71886075 149.18704129 118.03515625 150.51171875 C118.36515625 151.17171875 118.69515625 151.83171875 119.03515625 152.51171875 C118.37515625 152.51171875 117.71515625 152.51171875 117.03515625 152.51171875 C117.03515625 155.15171875 117.03515625 157.79171875 117.03515625 160.51171875 C116.37515625 160.51171875 115.71515625 160.51171875 115.03515625 160.51171875 C115.09703125 161.93484375 115.09703125 161.93484375 115.16015625 163.38671875 C115.03515625 166.51171875 115.03515625 166.51171875 113.03515625 168.51171875 C112.89078125 169.27484375 112.74640625 170.03796875 112.59765625 170.82421875 C111.95643297 173.88784108 110.63666154 175.84254326 109.03515625 178.51171875 C108.89078125 179.25421875 108.74640625 179.99671875 108.59765625 180.76171875 C107.74141676 184.94777846 105.84090994 188.6566446 104.03515625 192.51171875 C103.04515625 192.51171875 102.05515625 192.51171875 101.03515625 192.51171875 C100.91140625 194.15140625 100.91140625 194.15140625 100.78515625 195.82421875 C100.03515625 199.51171875 100.03515625 199.51171875 97.97265625 201.26171875 C97.33328125 201.67421875 96.69390625 202.08671875 96.03515625 202.51171875 C96.03515625 203.50171875 96.03515625 204.49171875 96.03515625 205.51171875 C95.04515625 205.84171875 94.05515625 206.17171875 93.03515625 206.51171875 C92.70515625 207.17171875 92.37515625 207.83171875 92.03515625 208.51171875 C91.70515625 209.17171875 91.37515625 209.83171875 91.03515625 210.51171875 C90.04515625 210.84171875 89.05515625 211.17171875 88.03515625 211.51171875 C86.92679202 213.39488034 86.92679202 213.39488034 86.03515625 215.51171875 C83.96579047 218.61576742 81.76913161 220.98279154 79.03515625 223.51171875 C78.37515625 223.51171875 77.71515625 223.51171875 77.03515625 223.51171875 C77.03515625 224.17171875 77.03515625 224.83171875 77.03515625 225.51171875 C75.38515625 225.84171875 73.73515625 226.17171875 72.03515625 226.51171875 C72.03515625 227.50171875 72.03515625 228.49171875 72.03515625 229.51171875 C70.38515625 229.84171875 68.73515625 230.17171875 67.03515625 230.51171875 C67.03515625 231.50171875 67.03515625 232.49171875 67.03515625 233.51171875 C64.70064903 236.75408989 61.71399261 237.31046606 58.03515625 238.51171875 C56.6840242 239.48753634 55.34568681 240.48201616 54.03515625 241.51171875 C53.37515625 241.51171875 52.71515625 241.51171875 52.03515625 241.51171875 C51.98016968 242.52661377 51.98016968 242.52661377 51.92407227 243.56201172 C51.45035584 250.31818003 50.20403874 256.2552452 47.97265625 262.63671875 C47.66030029 263.54341309 47.34794434 264.45010742 47.02612305 265.38427734 C39.8505025 285.70124419 29.24158724 304.26551304 15.03515625 320.51171875 C14.1575407 321.56814512 13.28268663 322.62686978 12.41015625 323.6875 C1.95656739 336.29622549 -9.47300788 348.39030532 -22.39453125 358.49609375 C-25.140481 360.64945252 -27.76132846 362.9186763 -30.40234375 365.19921875 C-67.8393493 396.39672337 -113.6271809 419.23896079 -158.96484375 436.51171875 C-160.06795898 436.93259766 -161.17107422 437.35347656 -162.30761719 437.78710938 C-220.79834652 459.86740209 -283.54487483 473.49250709 -345.96484375 477.51171875 C-346.59725983 477.5530191 -347.2296759 477.59431946 -347.8812561 477.63687134 C-361.01540543 478.47303094 -374.11860244 478.71399263 -387.27734375 478.69921875 C-388.28096954 478.6986145 -389.28459534 478.69801025 -390.31863403 478.6973877 C-451.82206292 478.59744851 -515.22966629 469.80984718 -570.96484375 442.51171875 C-572.05949951 441.97877197 -572.05949951 441.97877197 -573.17626953 441.43505859 C-588.93980476 433.66870321 -603.73540709 424.09800882 -616.96484375 412.51171875 C-617.83625 411.76148438 -618.70765625 411.01125 -619.60546875 410.23828125 C-644.85857413 388.08510797 -664.83924868 354.272659 -667.96484375 320.51171875 C-670.0315641 282.72936299 -656.43640658 247.85117229 -632.96484375 218.51171875 C-632.2584375 217.61324219 -631.55203125 216.71476563 -630.82421875 215.7890625 C-619.80922705 202.02032287 -607.51267971 188.80886583 -593.96484375 177.51171875 C-593.43181641 177.06489746 -592.89878906 176.61807617 -592.34960938 176.15771484 C-569.82665792 157.34191945 -545.60628476 141.72448812 -519.96484375 127.51171875 C-519.20300781 127.08681152 -518.44117188 126.6619043 -517.65625 126.22412109 C-455.16435449 91.58724667 -383.70326844 71.84682976 -313.33984375 61.69921875 C-312.60953949 61.5936264 -311.87923523 61.48803406 -311.12680054 61.37924194 C-302.09278545 60.0862907 -293.07788225 59.08165151 -283.96484375 58.51171875 C-286.54615702 61.09303202 -288.234372 61.11085317 -291.81640625 61.73828125 C-293.65706665 62.07230957 -293.65706665 62.07230957 -295.53491211 62.41308594 C-296.19393524 62.53018921 -296.85295837 62.64729248 -297.5319519 62.76794434 C-378.48138339 77.27409014 -463.93321729 108.9933532 -531.5078125 169.23828125 C-533.68584028 171.25356291 -535.90093661 173.20444311 -538.15234375 175.13671875 C-545.00875605 181.12911161 -551.00213251 187.56959546 -556.6875 194.68359375 C-558.1427788 196.49083535 -559.62743246 198.27505888 -561.1484375 200.02734375 C-583.410482 225.90052203 -597.73120838 260.27649971 -595.78515625 294.6484375 C-593.37729514 319.34129884 -581.63124994 340.74104974 -564.6171875 358.453125 C-562.96484375 360.51171875 -562.96484375 360.51171875 -562.96484375 363.51171875 C-562.16626953 363.8675 -562.16626953 363.8675 -561.3515625 364.23046875 C-558.90496992 365.54386051 -556.72927682 367.08366375 -554.50073242 368.73486328 C-482.21631888 422.29025113 -380.07832785 426.51833492 -279.51425171 414.57003784 C-190.3904055 401.1619786 -99.30150156 369.77133011 -19.96484375 300.51171875 C-19.38379883 299.96322266 -18.80275391 299.41472656 -18.20410156 298.84960938 C-4.13479366 285.51300084 9.296778 269.98847526 18.03515625 252.51171875 C13.41515625 252.51171875 8.79515625 252.51171875 4.03515625 252.51171875 C4.28265625 253.66671875 4.53015625 254.82171875 4.78515625 256.01171875 C5.40006298 261.03791287 3.99993027 264.47533967 1.03515625 268.51171875 C-2.44303109 271.60344083 -4.17749177 272.46092185 -8.83984375 272.76171875 C-9.87109375 272.67921875 -10.90234375 272.59671875 -11.96484375 272.51171875 C-11.73796875 273.54296875 -11.51109375 274.57421875 -11.27734375 275.63671875 C-10.91301623 280.15438004 -11.45448395 281.78666872 -13.96484375 285.51171875 C-17.09123891 288.70916835 -19.20963353 290.29972992 -23.52734375 291.51171875 C-27.37778095 291.51171875 -29.0433344 290.99057517 -31.96484375 288.51171875 C-31.96484375 287.52171875 -31.96484375 286.53171875 -31.96484375 285.51171875 C-32.87234375 285.28484375 -33.77984375 285.05796875 -34.71484375 284.82421875 C-39.00295845 283.09248012 -40.92474161 280.59192302 -42.96484375 276.51171875 C-43.36051521 272.39673558 -43.23272486 270.03717786 -41.33984375 266.32421875 C-38.73896247 263.24422776 -36.54257108 261.37213696 -32.96484375 259.51171875 C-29.58984375 259.26171875 -29.58984375 259.26171875 -26.96484375 259.51171875 C-27.15046875 258.74859375 -27.33609375 257.98546875 -27.52734375 257.19921875 C-27.96484375 254.51171875 -27.96484375 254.51171875 -26.96484375 251.51171875 C-35.37984375 251.01671875 -35.37984375 251.01671875 -43.96484375 250.51171875 C-43.96484375 249.85171875 -43.96484375 249.19171875 -43.96484375 248.51171875 C-44.62484375 248.51171875 -45.28484375 248.51171875 -45.96484375 248.51171875 C-46.29484375 249.17171875 -46.62484375 249.83171875 -46.96484375 250.51171875 C-47.36445312 250.04894531 -47.7640625 249.58617187 -48.17578125 249.109375 C-50.26218707 247.24618727 -51.91470626 246.7116765 -54.58984375 245.94921875 C-57.00390625 245.2578125 -57.00390625 245.2578125 -58.96484375 244.51171875 C-59.29484375 243.85171875 -59.62484375 243.19171875 -59.96484375 242.51171875 C-60.95484375 242.51171875 -61.94484375 242.51171875 -62.96484375 242.51171875 C-64.28047079 243.98527466 -64.28047079 243.98527466 -65.390625 246 C-65.85009521 246.75949951 -66.30956543 247.51899902 -66.78295898 248.30151367 C-67.27610596 249.13400635 -67.76925293 249.96649902 -68.27734375 250.82421875 C-79.97204167 269.9277787 -93.81940177 287.8508001 -108.98046875 304.33984375 C-110.90073793 306.44155568 -112.74672527 308.59238462 -114.58984375 310.76171875 C-123.46645759 320.91524688 -123.46645759 320.91524688 -128.96484375 321.51171875 C-129.95484375 320.85171875 -130.94484375 320.19171875 -131.96484375 319.51171875 C-131.3979615 314.72706616 -130.4236415 310.47308761 -128.8203125 305.93359375 C-128.17823853 304.08145264 -128.17823853 304.08145264 -127.52319336 302.19189453 C-127.29872528 301.54963928 -127.0742572 300.90738403 -126.84298706 300.2456665 C-115.38184432 268.46006684 -115.38184432 268.46006684 -117.27734375 235.69921875 C-118.74585906 232.31406179 -118.74585906 232.31406179 -121.96484375 230.51171875 C-141.89574048 227.05022846 -166.82738483 242.92012734 -183.96484375 251.26171875 C-226.96442406 272.18539609 -226.96442406 272.18539609 -248.96484375 278.51171875 C-249.95170166 278.80997559 -249.95170166 278.80997559 -250.95849609 279.11425781 C-256.30141311 280.61641126 -261.43250313 280.87833642 -266.96484375 280.88671875 C-267.815625 280.91121094 -268.66640625 280.93570312 -269.54296875 280.9609375 C-276.74926596 280.99409531 -281.75831106 279.14926471 -287.3203125 274.57421875 C-300.65190591 259.56551658 -301.46982516 239.6420676 -302.96484375 220.57421875 C-303.61292412 197.12962884 -303.61292412 197.12962884 -312.96484375 176.51171875 C-316.83387108 174.57720509 -320.76170852 174.86508256 -324.96484375 175.51171875 C-334.11748797 178.93873622 -341.63251051 184.12404194 -348.96484375 190.51171875 C-350.51888175 191.8027657 -352.07293814 193.09379065 -353.62744141 194.38427734 C-359.90627142 199.62623634 -365.9410277 205.10628437 -371.921875 210.68359375 C-374.5323146 213.11772915 -377.17694811 215.50991934 -379.83984375 217.88671875 C-384.6963755 222.23949356 -389.45986383 226.68787265 -394.22167969 231.14355469 C-399.9099085 236.46572353 -405.6294433 241.75303912 -411.35888672 247.03076172 C-413.01185396 248.55506991 -414.66246977 250.08188835 -416.3125 251.609375 C-426.16877673 260.7315667 -436.12101239 269.71155721 -446.34765625 278.41796875 C-448.67239842 280.39890228 -450.9792208 282.39734817 -453.26953125 284.41796875 C-467.03644334 296.51190352 -481.52573811 308.25888839 -497.96484375 316.51171875 C-498.68285156 316.888125 -499.40085937 317.26453125 -500.140625 317.65234375 C-509.142163 321.75242317 -519.80646066 320.00695103 -528.828125 316.89453125 C-543.08698932 310.60855619 -551.68625482 298.62909126 -557.26464844 284.49365234 C-561.63049917 272.13592003 -562.85120961 258.86938805 -557.96484375 246.51171875 C-554.36621782 241.1600857 -551.13677521 239.33750444 -545.15234375 237.26171875 C-531.47061455 232.05797145 -519.98514533 224.07621344 -508.96484375 214.51171875 C-507.90376861 213.62069627 -506.84119481 212.73145627 -505.77734375 211.84375 C-489.09337412 197.85291898 -473.78164635 182.44024691 -458.47265625 166.98291016 C-447.41405533 155.83726993 -447.41405533 155.83726993 -441.48852539 150.81274414 C-439.53798039 149.14723312 -437.74566889 147.35614479 -435.96484375 145.51171875 C-417.49449354 126.86376902 -394.63140279 108.47567196 -369.52734375 100.01171875 C-368.80651611 99.76848877 -368.08568848 99.52525879 -367.34301758 99.2746582 C-345.1496433 92.28327343 -315.99033132 94.89561195 -294.96484375 104.51171875 C-284.79413916 110.28017807 -278.24466994 117.23072786 -274.96484375 128.51171875 C-274.42045904 131.24562782 -273.92010866 133.96162454 -273.47265625 136.7109375 C-273.27880592 137.88922119 -273.27880592 137.88922119 -273.08103943 139.09130859 C-271.58816317 148.46149803 -270.69126866 157.89043169 -269.81079102 167.33447266 C-267.27067364 196.6995467 -267.27067364 196.6995467 -252.96484375 221.51171875 C-247.68418212 225.77651653 -242.66500386 228.50676502 -235.76953125 228.0234375 C-216.0106426 224.4184035 -197.95917822 213.036394 -180.83740234 203.16552734 C-178.12056115 201.60136941 -175.39780391 200.04825401 -172.671875 198.5 C-162.14335407 192.51598531 -151.66756741 186.4444818 -141.22094727 180.31860352 C-135.50920004 176.97389544 -129.76808986 173.69521891 -123.96484375 170.51171875 C-124.12750229 169.68533905 -124.29016083 168.85895935 -124.45774841 168.00753784 C-125.01382442 164.1740553 -125.097732 160.44085255 -125.07836914 156.57861328 C-125.07851517 155.80720505 -125.07866119 155.03579681 -125.07881165 154.24101257 C-125.07811883 151.70882284 -125.07035616 149.17670803 -125.0625 146.64453125 C-125.06063358 144.88190755 -125.05921073 143.11928334 -125.05821228 141.35665894 C-125.05440478 136.73053541 -125.04458964 132.10444357 -125.0335083 127.47833252 C-125.02325613 122.75248646 -125.01870652 118.02663524 -125.01367188 113.30078125 C-125.00296573 104.03774654 -124.98591061 94.77473529 -124.96484375 85.51171875 C-124.30484375 85.51171875 -123.64484375 85.51171875 -122.96484375 85.51171875 C-122.82046875 84.25359375 -122.67609375 82.99546875 -122.52734375 81.69921875 C-122.22735689 79.08504752 -121.80671078 77.03731983 -120.96484375 74.51171875 C-120.30484375 74.18171875 -119.64484375 73.85171875 -118.96484375 73.51171875 C-118.13437367 71.65931711 -118.13437367 71.65931711 -117.46484375 69.51171875 C-116.74609375 67.32421875 -116.74609375 67.32421875 -115.96484375 65.51171875 C-115.30484375 65.18171875 -114.64484375 64.85171875 -113.96484375 64.51171875 C-113.96484375 63.85171875 -113.96484375 63.19171875 -113.96484375 62.51171875 C-113.30484375 62.51171875 -112.64484375 62.51171875 -111.96484375 62.51171875 C-111.96484375 61.19171875 -111.96484375 59.87171875 -111.96484375 58.51171875 C-111.30484375 58.51171875 -110.64484375 58.51171875 -109.96484375 58.51171875 C-109.96484375 57.85171875 -109.96484375 57.19171875 -109.96484375 56.51171875 C-109.30484375 56.51171875 -108.64484375 56.51171875 -107.96484375 56.51171875 C-107.96484375 55.19171875 -107.96484375 53.87171875 -107.96484375 52.51171875 C-107.30484375 52.51171875 -106.64484375 52.51171875 -105.96484375 52.51171875 C-105.67609375 51.89296875 -105.38734375 51.27421875 -105.08984375 50.63671875 C-103.96484375 48.51171875 -103.96484375 48.51171875 -101.96484375 46.51171875 C-101.30484375 45.52171875 -100.64484375 44.53171875 -99.96484375 43.51171875 C-99.30484375 43.51171875 -98.64484375 43.51171875 -97.96484375 43.51171875 C-97.71734375 42.70734375 -97.46984375 41.90296875 -97.21484375 41.07421875 C-96.59609375 39.80578125 -96.59609375 39.80578125 -95.96484375 38.51171875 C-93.90234375 37.88671875 -93.90234375 37.88671875 -91.96484375 37.51171875 C-91.63484375 36.52171875 -91.30484375 35.53171875 -90.96484375 34.51171875 C-90.30484375 33.85171875 -89.64484375 33.19171875 -88.96484375 32.51171875 C-88.20171875 31.70734375 -87.43859375 30.90296875 -86.65234375 30.07421875 C-84.14646739 27.68489478 -81.94429667 26.22490418 -78.96484375 24.51171875 C-77.23372897 23.51509495 -75.50454242 22.51511404 -73.77734375 21.51171875 C-72.91753906 21.01671875 -72.05773437 20.52171875 -71.171875 20.01171875 C-68.71454553 18.54398962 -68.71454553 18.54398962 -66.96484375 15.51171875 C-64.98499894 14.78738528 -62.97900937 14.13427903 -60.96484375 13.51171875 C-59.43621425 12.86312771 -57.91567655 12.19524073 -56.40234375 11.51171875 C-55.25185547 10.99544922 -55.25185547 10.99544922 -54.078125 10.46875 C-52.41404514 9.71514637 -50.75163241 8.9578614 -49.08984375 8.19921875 C-46.96484375 7.51171875 -46.96484375 7.51171875 -43.96484375 8.51171875 C-43.63484375 7.52171875 -43.30484375 6.53171875 -42.96484375 5.51171875 C-42.20300781 5.39054688 -41.44117188 5.269375 -40.65625 5.14453125 C-35.88904408 4.37082742 -31.15740979 3.59859496 -26.46484375 2.44921875 C-21.89706987 1.37199237 -17.34227964 1.10008141 -12.6640625 0.85546875 C-9.97538613 0.66896625 -9.97538613 0.66896625 -7.8515625 -0.57421875 C-5.02276962 -1.94468984 -2.88562497 -0.84680957 0 0 Z " fill="#FEFEFE" transform="translate(667.96484375,1.48828125)"/>
<path d="M0 0 C-7.02570374 1.66422409 -14.06077504 3.2390203 -21.1328125 4.69140625 C-102.13383551 21.41375979 -186.05184797 52.64695698 -247.54296875 109.7265625 C-249.72099653 111.74184416 -251.93609286 113.69272436 -254.1875 115.625 C-261.0439123 121.61739286 -267.03728876 128.05787671 -272.72265625 135.171875 C-274.17793505 136.9791166 -275.66258871 138.76334013 -277.18359375 140.515625 C-299.44563825 166.38880328 -313.76636463 200.76478096 -311.8203125 235.13671875 C-309.41245139 259.82958009 -297.66640619 281.22933099 -280.65234375 298.94140625 C-279 301 -279 301 -279 304 C-278.20142578 304.35578125 -278.20142578 304.35578125 -277.38671875 304.71875 C-274.94012617 306.03214176 -272.76443307 307.571945 -270.53588867 309.22314453 C-198.25147513 362.77853238 -96.1134841 367.00661617 4.45059204 355.05831909 C93.57443825 341.65025985 184.66334219 310.25961136 264 241 C264.58104492 240.45150391 265.16208984 239.90300781 265.76074219 239.33789062 C279.6465001 226.17527318 291.24386199 211.45826136 301 195 C301.52352051 194.12359863 301.52352051 194.12359863 302.05761719 193.22949219 C316.13547742 169.31659226 321.91005925 140.5974968 316.83203125 113.125 C314.77422813 105.39616198 311.95801625 97.73723815 308.24609375 90.65234375 C307.83488281 89.77707031 307.42367187 88.90179688 307 88 C307.33 87.34 307.66 86.68 308 86 C329.69835533 117.52829918 342.57931546 149.44084745 335.875 188.5625 C329.76551528 215.44423276 317.14856316 240.24564652 299 261 C298.12238445 262.05642637 297.24753038 263.11515103 296.375 264.17578125 C285.92141114 276.78450674 274.49183587 288.87858657 261.5703125 298.984375 C258.82436275 301.13773377 256.20351529 303.40695755 253.5625 305.6875 C216.12549445 336.88500462 170.33766285 359.72724204 125 377 C123.89688477 377.42087891 122.79376953 377.84175781 121.65722656 378.27539062 C63.16649723 400.35568334 0.41996892 413.98078834 -62 418 C-62.63241608 418.04130035 -63.26483215 418.08260071 -63.91641235 418.12515259 C-77.05056168 418.96131219 -90.15375869 419.20227388 -103.3125 419.1875 C-104.31612579 419.18689575 -105.31975159 419.1862915 -106.35379028 419.18566895 C-167.85721917 419.08572976 -231.26482254 410.29812843 -287 383 C-288.09465576 382.46705322 -288.09465576 382.46705322 -289.21142578 381.92333984 C-304.97496101 374.15698446 -319.77056334 364.58629007 -333 353 C-333.87140625 352.24976563 -334.7428125 351.49953125 -335.640625 350.7265625 C-360.89373038 328.57338922 -380.87440493 294.76094025 -384 261 C-386.06672035 223.21764424 -372.47156283 188.33945354 -349 159 C-348.29359375 158.10152344 -347.5871875 157.20304688 -346.859375 156.27734375 C-335.8443833 142.50860412 -323.54783596 129.29714708 -310 118 C-309.46697266 117.55317871 -308.93394531 117.10635742 -308.38476562 116.64599609 C-285.86181417 97.8302007 -261.64144101 82.21276937 -236 68 C-235.23816406 67.57509277 -234.47632813 67.15018555 -233.69140625 66.71240234 C-166.078973 29.23740914 -89.12353454 9.94711925 -13 0 C-11.58412598 -0.19408447 -11.58412598 -0.19408447 -10.13964844 -0.39208984 C-6.458601 -0.86365376 -3.55786095 -1.0451278 0 0 Z " fill="#F8CD03" transform="translate(384,61)"/>
<path d="M0 0 C0.7634523 -0.01248276 1.5269046 -0.02496552 2.31349182 -0.03782654 C33.67803501 -0.45176634 33.67803501 -0.45176634 48.0859375 5.2734375 C49.08496094 5.65757813 50.08398438 6.04171875 51.11328125 6.4375 C60.16032775 10.43724687 66.89909933 16.64401744 71.11328125 25.5859375 C73.58522881 32.41605768 74.5303151 39.15498525 75.19921875 46.34375 C75.39733909 48.31384712 75.59592274 50.2838977 75.79492188 52.25390625 C76.09643943 55.30207163 76.39390017 58.3504737 76.68237305 61.39990234 C79.35128373 96.53111563 79.35128373 96.53111563 96.8125 125.80078125 C103.14451049 130.61255133 109.24667812 131.92579545 117.0859375 131.2734375 C120.15793461 130.55763565 123.03058443 129.49468105 125.9609375 128.3359375 C126.78118408 128.02019775 127.60143066 127.70445801 128.4465332 127.37915039 C145.34011302 120.74590039 160.80605716 112.13089102 176.38427734 102.8671875 C179.92145643 100.7805523 183.49541705 98.76643653 187.0859375 96.7734375 C191.57752347 94.27765554 196.02929376 91.72648814 200.44921875 89.10546875 C260.93269042 53.26397276 260.93269042 53.26397276 287.2890625 57.828125 C295.28108113 59.95773476 300.58236785 64.03077712 305.1640625 70.88671875 C309.94811066 83.27253836 305.15219091 97.82745758 300.0859375 109.2734375 C299.60374756 110.39419678 299.60374756 110.39419678 299.11181641 111.53759766 C290.74529188 130.80780238 279.55175148 148.41776889 267.0859375 165.2734375 C266.63976074 165.87800781 266.19358398 166.48257813 265.73388672 167.10546875 C260.23246888 174.51461976 254.42182919 181.5602773 248.0859375 188.2734375 C247.29832031 189.12550781 246.51070312 189.97757813 245.69921875 190.85546875 C244.91933594 191.67402344 244.13945313 192.49257813 243.3359375 193.3359375 C242.63984375 194.06941406 241.94375 194.80289063 241.2265625 195.55859375 C238.8141216 197.49118783 237.12478083 197.92811439 234.0859375 198.2734375 C234.73763706 193.26398785 236.20370548 188.86929051 237.8984375 184.1484375 C241.10556132 174.9449669 243.03060606 165.63850732 244.70043945 156.05078125 C245.0859375 154.2734375 245.0859375 154.2734375 246.0859375 152.2734375 C247.7304561 141.60207228 248.32624977 130.87450445 248.4609375 120.0859375 C248.48679932 119.03591553 248.51266113 117.98589355 248.53930664 116.90405273 C248.5549235 110.61348215 247.9687384 105.41794348 244.0859375 100.2734375 C238.43401114 96.5054866 231.26734845 97.78196953 224.7734375 98.78515625 C202.90439627 103.87964881 182.22652119 115.96019014 162.09594727 125.63500977 C153.51422589 129.75260926 144.93677723 133.75723944 136.0859375 137.2734375 C134.91160156 137.74910156 133.73726563 138.22476563 132.52734375 138.71484375 C98.05501751 152.13893823 98.05501751 152.13893823 82.0859375 146.2734375 C76.15504883 143.30799317 73.30621799 138.86559598 70.0859375 133.2734375 C69.70308594 132.61730469 69.32023437 131.96117187 68.92578125 131.28515625 C66.52479998 126.58361498 65.46542063 121.72342638 64.56640625 116.5546875 C64.37147583 115.43942688 64.37147583 115.43942688 64.17260742 114.30163574 C62.69120733 105.43975526 62.06777125 96.52961724 61.42919922 87.57568359 C60.82831903 79.30852777 60.03283246 71.15153027 58.609375 62.98046875 C58.48792114 62.27760742 58.36646729 61.57474609 58.24133301 60.85058594 C57.034737 54.29478758 55.44929983 49.46798824 50.4609375 44.8359375 C46.55091032 42.2635512 43.71519293 41.59980642 39.0859375 42.2734375 C21.38976106 47.26287328 7.88573457 60.88870337 -5.40234375 73.0078125 C-7.49045058 74.89133033 -9.59972697 76.74211023 -11.72265625 78.5859375 C-15.79267106 82.13978079 -19.73816336 85.81182885 -23.6640625 89.5234375 C-29.400867 94.92454602 -35.170527 100.28373998 -40.98828125 105.59765625 C-44.13950908 108.47962029 -47.27801493 111.37498335 -50.4140625 114.2734375 C-68.23222448 130.72875231 -68.23222448 130.72875231 -74.8671875 136.47265625 C-77.35480976 138.66119415 -79.78759702 140.90582941 -82.2265625 143.1484375 C-86.65849496 147.18574584 -91.18875729 151.04702339 -95.859375 154.8046875 C-98.10329071 156.61818459 -100.32278572 158.44906848 -102.53125 160.3046875 C-136.31341403 188.52233061 -136.31341403 188.52233061 -154.6796875 187.6875 C-167.71115046 186.01922093 -176.67311448 179.60504037 -185.05859375 169.796875 C-190.28417412 162.6900857 -194.9243412 153.80041229 -194.91015625 144.79296875 C-193.37436741 140.90832638 -190.15563555 139.98756878 -186.5390625 138.3984375 C-185.06440322 137.70345312 -183.5917452 137.00420687 -182.12109375 136.30078125 C-181.39873535 135.95772949 -180.67637695 135.61467773 -179.93212891 135.26123047 C-167.2174059 129.03769196 -156.82490891 119.02620567 -146.4546814 109.57870483 C-144.85333282 108.12569802 -143.24504496 106.68026796 -141.62710571 105.24575806 C-135.31667622 99.64312893 -129.31368091 93.78985363 -123.375 87.796875 C-122.3998463 86.8172977 -121.42438589 85.83802565 -120.44863892 84.85903931 C-117.39256917 81.79169466 -114.3405066 78.72038294 -111.2890625 75.6484375 C-107.73924314 72.07482859 -104.18769742 68.50296892 -100.63188553 64.93532181 C-99.22745472 63.52451122 -97.82612877 62.11061195 -96.42489624 60.69662476 C-91.95111795 56.20582229 -87.43107778 51.84738706 -82.60882568 47.73104858 C-80.44327408 45.86852758 -78.37510885 43.91358825 -76.30102539 41.95068359 C-69.19158477 35.23959206 -61.7169109 29.15538463 -53.9140625 23.2734375 C-53.34574707 22.83757324 -52.77743164 22.40170898 -52.19189453 21.95263672 C-37.12103983 10.43342994 -19.36926339 0.28789397 0 0 Z " fill="#1E3185" transform="translate(317.9140625,100.7265625)"/>
<path d="M0 0 C9.71555613 7.98834615 10.79650005 19.37679647 12.01708984 31.31323242 C12.5482664 37.13340987 12.98448795 42.96210922 13.41430664 48.79052734 C14.03129154 57.05757983 14.8219371 65.25274394 16.1875 73.43359375 C16.34810158 74.44870026 16.34810158 74.44870026 16.51194763 75.48431396 C17.82204755 82.83225328 21.1635591 88.88508843 24.8125 95.3125 C25.17472656 96.07691406 25.53695313 96.84132813 25.91015625 97.62890625 C27.13317174 99.9108096 28.45077148 100.34002355 30.8125 101.3125 C31.43125 101.663125 32.05 102.01375 32.6875 102.375 C45.27892977 107.93004255 62.6669974 102.79067548 75.01171875 98.4140625 C78.69342759 96.96602639 82.28385246 95.3650561 85.8515625 93.65625 C88.27998907 92.55416723 90.69684506 91.58098517 93.18359375 90.625 C99.66704659 88.05372701 105.87968105 84.9401491 112.12957764 81.85705566 C123.56071033 76.22588774 135.04331437 70.74025215 146.6875 65.5625 C147.75411865 65.08619141 148.8207373 64.60988281 149.91967773 64.11914062 C177.23793381 52.08478133 177.23793381 52.08478133 191.8125 54.3125 C195.59195605 56.52992653 197.74069376 59.03424687 199.29833984 63.16601562 C200.39375862 67.73910292 200.20320475 72.38763344 200.125 77.0625 C200.1137207 78.16779053 200.10244141 79.27308105 200.09082031 80.41186523 C199.84758776 95.18610931 198.28876795 109.11548717 194.34033203 123.35205078 C193.80216241 125.35089541 193.31402948 127.3561662 192.83984375 129.37109375 C190.73720038 138.27271009 188.07249865 146.76168386 184.8125 155.3125 C189.26465103 153.31871062 192.32095683 151.14456786 195.6875 147.625 C196.46867187 146.81675781 197.24984375 146.00851562 198.0546875 145.17578125 C198.63476562 144.56089844 199.21484375 143.94601562 199.8125 143.3125 C199.8125 147.48201918 198.08292164 148.50664465 195.25 151.5 C194.32485011 152.4876534 193.40037408 153.47593843 192.4765625 154.46484375 C191.59742188 155.40457031 190.71828125 156.34429687 189.8125 157.3125 C188.57586639 158.72265334 187.34561038 160.13845455 186.125 161.5625 C182.86012946 165.32487462 179.38226083 168.8403922 175.8125 172.3125 C174.8125 170.3125 174.8125 170.3125 175.36987305 168.12036133 C175.84227417 166.77107544 175.84227417 166.77107544 176.32421875 165.39453125 C176.6682373 164.39470215 177.01225586 163.39487305 177.36669922 162.36474609 C177.74068848 161.29562988 178.11467773 160.22651367 178.5 159.125 C184.59029991 141.25571656 188.89379602 124.39039755 189.1875 105.4375 C189.21360352 104.46232422 189.23970703 103.48714844 189.26660156 102.48242188 C189.28146163 96.28789811 188.476613 91.43340963 184.8125 86.3125 C179.71845887 82.33666302 173.97818676 82.5684924 167.8125 83.3125 C147.60087014 87.44222762 128.89669533 97.75902433 110.5 106.75 C44.21742812 139.13702394 44.21742812 139.13702394 24.5859375 133.6953125 C16.17186072 130.02430603 11.33823711 122.45420798 7.8125 114.3125 C6.89208039 111.43604795 6.24794706 108.54277929 5.66015625 105.58203125 C5.49330826 104.76378372 5.32646027 103.94553619 5.15455627 103.10249329 C3.36556748 93.79808245 2.78086036 84.44462777 2.25 75 C1.88780062 51.05062833 1.88780062 51.05062833 -8.8125 30.875 C-14.0638675 27.42015296 -19.0229354 27.79691823 -25.1875 28.3125 C-41.17782569 32.042784 -55.09753156 47.51891089 -66.9375 58.27734375 C-68.93739375 60.08627543 -70.96019432 61.86141801 -73 63.625 C-82.07728884 71.54039587 -90.79697189 79.87340508 -99.59545898 88.09545898 C-105.23598697 93.36425955 -110.90452891 98.6021161 -116.58154297 103.83154297 C-118.23451021 105.35585116 -119.88512602 106.8826696 -121.53515625 108.41015625 C-130.66878615 116.8638204 -139.79723292 125.24246592 -149.48046875 133.0703125 C-152.06053591 135.20733782 -154.53464485 137.41985745 -157 139.6875 C-193.45264639 172.75320759 -193.45264639 172.75320759 -215.6484375 172.5234375 C-225.99043517 171.90702704 -234.22127849 166.66332307 -241.3125 159.3125 C-251.67086687 147.03132251 -256.05553835 132.07963067 -255.546875 116.23046875 C-254.97901166 110.03952381 -253.01890112 105.40690773 -248.1875 101.3125 C-246 100.625 -246 100.625 -244.1875 100.3125 C-243.85878906 101.76269531 -243.85878906 101.76269531 -243.5234375 103.2421875 C-240.16150129 117.34560978 -233.66377384 129.87383745 -221.25 138.25 C-212.00801762 143.38039179 -201.55017131 145.23066963 -191.21875 142.5390625 C-169.10763473 134.15823655 -149.68816322 115.02036578 -132.44140625 99.3515625 C-130.4186731 97.52163753 -128.37380565 95.72368272 -126.3125 93.9375 C-122.34263797 90.48195208 -118.47407757 86.9186603 -114.60327148 83.35327148 C-111.89349721 80.86167687 -109.16515863 78.4011169 -106.375 76 C-101.7912212 72.02612108 -97.38891441 67.85878845 -92.9621582 63.7121582 C-88.05422125 59.1156432 -83.11136755 54.56059339 -78.1484375 50.0234375 C-74.98494093 47.13043362 -71.8360095 44.22179366 -68.6875 41.3125 C-67.59637367 40.30596844 -66.50522793 39.29945792 -65.4140625 38.29296875 C-63.2999814 36.34224268 -61.19120174 34.38601618 -59.0859375 32.42578125 C-52.65636471 26.45782411 -46.03512575 20.7986685 -39.1875 15.3125 C-37.92099609 14.260625 -37.92099609 14.260625 -36.62890625 13.1875 C-27.36883286 5.55985764 -12.53160341 -6.63437828 0 0 Z " fill="#87B3C7" transform="translate(367.1875,143.6875)"/>
<path d="M0 0 C3.27115986 2.65781739 4.52058095 6.11522872 6 9.9375 C6.39191528 10.93740967 6.39191528 10.93740967 6.79174805 11.95751953 C18.52135258 42.63382068 14.29500137 76.82554397 1.33300781 106.34741211 C-5.42715213 121.0960689 -14.32941778 134.79732405 -25 147 C-25.87761555 148.05642637 -26.75246962 149.11515103 -27.625 150.17578125 C-38.07858886 162.78450674 -49.50816413 174.87858657 -62.4296875 184.984375 C-65.17563725 187.13773377 -67.79648471 189.40695755 -70.4375 191.6875 C-107.87450555 222.88500462 -153.66233715 245.72724204 -199 263 C-200.10311523 263.42087891 -201.20623047 263.84175781 -202.34277344 264.27539062 C-260.83350277 286.35568334 -323.58003108 299.98078834 -386 304 C-386.63241608 304.04130035 -387.26483215 304.08260071 -387.91641235 304.12515259 C-401.05056168 304.96131219 -414.15375869 305.20227388 -427.3125 305.1875 C-428.31612579 305.18689575 -429.31975159 305.1862915 -430.35379028 305.18566895 C-491.85721917 305.08572976 -555.26482254 296.29812843 -611 269 C-612.09465576 268.46705322 -612.09465576 268.46705322 -613.21142578 267.92333984 C-628.97496101 260.15698446 -643.77056334 250.58629007 -657 239 C-657.87140625 238.24976563 -658.7428125 237.49953125 -659.640625 236.7265625 C-667.35006096 229.96349442 -673.62857612 222.62944968 -679.75 214.4375 C-680.22236084 213.81214355 -680.69472168 213.18678711 -681.18139648 212.54248047 C-684.13434608 208.52249867 -686.20245288 204.65564705 -688 200 C-687.34 200 -686.68 200 -686 200 C-684.87890625 201.546875 -684.87890625 201.546875 -683.5625 203.75 C-669.66952503 225.23015791 -647.23581931 240.27900936 -625 252 C-624.08395996 252.4937915 -624.08395996 252.4937915 -623.14941406 252.99755859 C-590.0651335 270.77616425 -553.15877773 280.78404144 -516.25 286.6875 C-514.48922119 286.97306763 -514.48922119 286.97306763 -512.69287109 287.2644043 C-508.46836418 287.90753232 -504.24024744 288.47192532 -500 289 C-498.98765289 289.12774811 -497.97530579 289.25549622 -496.93228149 289.38711548 C-476.72663681 291.86257909 -456.81735177 292.4433554 -436.484375 292.3225708 C-433.41221114 292.30910069 -430.34019128 292.31441736 -427.26801109 292.31944561 C-409.41717667 292.34135805 -391.7766964 291.79825361 -374 290 C-373.18002533 289.92191101 -372.36005066 289.84382202 -371.51522827 289.7633667 C-363.61412987 289.008713 -355.80129284 288.03329804 -347.9921875 286.609375 C-346.49648426 286.34086497 -345.00071427 286.0727265 -343.50488281 285.80493164 C-342.75404419 285.67015411 -342.00320557 285.53537659 -341.22961426 285.39651489 C-337.77326078 284.78183654 -334.31239701 284.19428417 -330.8515625 283.60546875 C-304.81342223 279.1482633 -279.27585452 273.78070373 -254 266 C-252.977854 265.68828857 -251.95570801 265.37657715 -250.90258789 265.05541992 C-215.9626109 254.37221011 -182.6331818 241.44133937 -150 225 C-148.65010986 224.32590088 -148.65010986 224.32590088 -147.27294922 223.63818359 C-127.52681726 213.73614168 -108.78242166 202.0907973 -91 189 C-89.95392578 188.23792236 -89.95392578 188.23792236 -88.88671875 187.46044922 C-81.43320046 182.02530825 -74.15507492 176.53860547 -67.40625 170.23046875 C-65.39316653 168.36444495 -63.34725511 166.56600867 -61.26953125 164.7734375 C-49.49719525 154.49902505 -38.4353849 143.30473072 -29.21923828 130.66796875 C-27.98696102 128.98216213 -26.72793445 127.31905295 -25.46484375 125.65625 C-11.28563472 106.72697864 -1.11250776 85.11391666 4 62 C4.22429688 61.04738281 4.44859375 60.09476563 4.6796875 59.11328125 C8.41660856 40.76141551 6.44514402 20.49396233 0 3 C0 2.01 0 1.02 0 0 Z " fill="#423E3A" transform="translate(708,175)"/>
<path d="M0 0 C2.5625 2 2.5625 2 5 5 C5.61359375 5.69996094 6.2271875 6.39992188 6.859375 7.12109375 C11.77332099 12.9490337 11.77332099 12.9490337 12.6875 17.1875 C11.13285321 23.54741869 7.03414031 27.22439477 2 31 C-2.26512015 33.50325048 -6.15614612 33.59470804 -11 33 C-14.0625 31.5 -14.0625 31.5 -16 30 C-15.484375 30.886875 -14.96875 31.77375 -14.4375 32.6875 C-13 36 -13 36 -12.875 38.625 C-14.28724959 41.60641581 -16.17850932 42.85382713 -19.078125 44.3515625 C-21.93722511 45.31621823 -24.15725492 44.83202295 -27 44 C-27.020625 44.7425 -27.04125 45.485 -27.0625 46.25 C-28.28350541 49.83161587 -29.85972667 50.67701441 -33.15625 52.33203125 C-35 53 -35 53 -37.75 53.0625 C-40.73046481 51.65505829 -41.58127201 49.91212588 -43 47 C-43.08636719 47.59167969 -43.17273438 48.18335938 -43.26171875 48.79296875 C-44.24600143 54.32843005 -45.33808277 57.47766254 -50 61 C-55.28185137 63.89006962 -59.11989905 64.65334455 -65 64 C-67.29561506 62.8741251 -68.9844168 61.61246656 -71 60 C-71.15855469 60.60328125 -71.31710937 61.2065625 -71.48046875 61.828125 C-71.71378906 62.62734375 -71.94710937 63.4265625 -72.1875 64.25 C-72.51814453 65.43335938 -72.51814453 65.43335938 -72.85546875 66.640625 C-75.28842092 71.65599398 -80.06360018 73.72838222 -85 75.8125 C-86.010625 76.25207031 -87.02125 76.69164062 -88.0625 77.14453125 C-91.25512148 78.07429735 -92.88614366 78.10859807 -96 77 C-97.8125 74.4375 -97.8125 74.4375 -99 72 C-98.505 75.96 -98.505 75.96 -98 80 C-99.4096347 80.70180531 -100.82807641 81.38593958 -102.25 82.0625 C-103.03890625 82.44535156 -103.8278125 82.82820313 -104.640625 83.22265625 C-108.02739022 84.33849446 -109.90504072 83.54747964 -113 82 C-113.08765625 82.62519531 -113.1753125 83.25039063 -113.265625 83.89453125 C-114 86 -114 86 -115.671875 87.01171875 C-116.35765625 87.23472656 -117.0434375 87.45773437 -117.75 87.6875 C-118.84054687 88.04908203 -118.84054687 88.04908203 -119.953125 88.41796875 C-122.28201206 89.08019045 -124.62634424 89.52526885 -127 90 C-128.33735719 90.53165429 -129.67037364 91.07429654 -131 91.625 C-134.39848181 92.94343174 -136.46051556 93.21353752 -140 92 C-140.99 91.67 -141.98 91.34 -143 91 C-143.268125 91.78375 -143.53625 92.5675 -143.8125 93.375 C-147.26142264 97.51370717 -151.82644289 97.47796939 -157 98 C-157.99 98 -158.98 98 -160 98 C-161.5159375 98.680625 -161.5159375 98.680625 -163.0625 99.375 C-169.72454965 102.3468657 -176.75680712 103.31492143 -184 103 C-186.12808658 97.32510247 -187.59188774 91.68625713 -188.75 85.75 C-188.88962158 85.06486328 -189.02924316 84.37972656 -189.1730957 83.67382812 C-189.89153126 79.82590416 -190.08370738 76.77833114 -189 73 C-181.09745606 70.08853644 -173.31659803 67.9925453 -165 70 C-162.5625 71.5625 -162.5625 71.5625 -161 74 C-160.43688164 76.68002627 -160.22465933 79.25915612 -160 82 C-159.505 82.495 -159.505 82.495 -159 83 C-157.77783495 80.5556699 -157.76525988 78.33207449 -157.55737305 75.64111328 C-156.78537521 66.84219823 -156.78537521 66.84219823 -154.48828125 64.37890625 C-152.6875 63.625 -152.6875 63.625 -149 63 C-147.700625 62.505 -147.700625 62.505 -146.375 62 C-144 62 -144 62 -141.6875 63.75 C-137.7495339 68.18021186 -134.41334317 73.16372468 -131 78 C-131.20496094 77.28714844 -131.40992188 76.57429688 -131.62109375 75.83984375 C-133.10620647 70.56023251 -134.39412346 65.45288884 -135 60 C-126.99737282 55.9376642 -126.99737282 55.9376642 -123 56.1875 C-121 57 -121 57 -120 58 C-119.91234375 57.37480469 -119.8246875 56.74960937 -119.734375 56.10546875 C-119 54 -119 54 -117.328125 52.98828125 C-116.64234375 52.76527344 -115.9565625 52.54226563 -115.25 52.3125 C-114.52683594 52.07144531 -113.80367188 51.83039063 -113.05859375 51.58203125 C-111 51 -111 51 -108.3125 50.5 C-105.89815961 50.10888688 -105.89815961 50.10888688 -103.69140625 48.60546875 C-96.50569809 44.3190739 -88.90694814 41.78831833 -80.5625 43.5 C-80.046875 43.665 -79.53125 43.83 -79 44 C-79.12375 43.2575 -79.2475 42.515 -79.375 41.75 C-79 39 -79 39 -76.375 36.75 C-73.09007151 35.04670374 -70.67197431 34.25618425 -67 34 C-66.67 34.33 -66.34 34.66 -66 35 C-65.34 34.236875 -64.68 33.47375 -64 32.6875 C-61.27617303 29.92476122 -58.54130872 28.87424425 -54.8671875 27.7734375 C-52.68729245 26.87046842 -51.58681599 25.7238391 -50 24 C-46.87601786 21.63590541 -45.65301731 20.93839459 -41.6875 21.3125 C-40.800625 21.539375 -39.91375 21.76625 -39 22 C-38.979375 21.2575 -38.95875 20.515 -38.9375 19.75 C-37.71608566 16.16718462 -36.1370001 15.32846822 -32.84765625 13.66015625 C-30.19094544 12.71092977 -28.57570715 12.89612551 -26 14 C-25.01 15.485 -25.01 15.485 -24 17 C-23.87625 16.43152344 -23.7525 15.86304688 -23.625 15.27734375 C-21.54623535 7.4949686 -17.29076983 3.5744619 -10.5 -0.5 C-6.8034895 -1.2393021 -3.61217219 -1.11541513 0 0 Z M-65 36 C-64 38 -64 38 -64 38 Z M-64 38 C-63 41 -63 41 -63 41 Z M-63 41 C-62 43 -62 43 -62 43 Z M-62 43 C-61 45 -61 45 -61 45 Z M-45 43 C-44 45 -44 45 -44 45 Z M-61 45 C-60 47 -60 47 -60 47 Z M-60 47 C-59 50 -59 50 -59 50 Z M-104 58 C-103 60 -103 60 -103 60 Z M-103 61 C-102 63 -102 63 -102 63 Z M-102 63 C-101 66 -101 66 -101 66 Z M-101 66 C-100 69 -100 69 -100 69 Z M-130 79 C-129 81 -129 81 -129 81 Z " fill="#F6F6FF" transform="translate(598,301)"/>
<path d="M0 0 C0.58305225 3.84814487 -0.2997117 5.76308635 -2.5 8.8125 C-3.32219744 9.88364055 -4.15204049 10.9491359 -5 12 C-3.13786507 16.16853555 -0.33468413 19.25963251 2.63671875 22.68359375 C4 25 4 25 3.70703125 27.78515625 C3.47371094 28.51605469 3.24039063 29.24695313 3 30 C0.89981487 30.41644184 -1.20541042 30.80753303 -3.3125 31.1875 C-4.48425781 31.40792969 -5.65601563 31.62835938 -6.86328125 31.85546875 C-10 32 -10 32 -11.91796875 30.55078125 C-12.45357422 29.78314453 -12.45357422 29.78314453 -13 29 C-13.38027344 29.64195312 -13.76054687 30.28390625 -14.15234375 30.9453125 C-16.56874291 33.63247097 -18.00946318 33.63844628 -21.5625 33.875 C-22.53316406 33.95492187 -23.50382812 34.03484375 -24.50390625 34.1171875 C-27 34 -27 34 -29 32 C-29.87689885 28.69809692 -30.39575448 25.36651077 -31 22 C-31 25.96 -31 29.92 -31 34 C-36.16569441 35.79217969 -39.51053913 36.12029814 -45 35 C-46.22963633 31.31109101 -46.55670401 27.86300794 -47 24 C-46.97679687 24.77085937 -46.95359375 25.54171875 -46.9296875 26.3359375 C-46.91164063 27.33882813 -46.89359375 28.34171875 -46.875 29.375 C-46.85179687 30.37273437 -46.82859375 31.37046875 -46.8046875 32.3984375 C-47 35 -47 35 -49 37 C-50.99609375 37.31884766 -50.99609375 37.31884766 -53.4375 37.4140625 C-54.78134766 37.47207031 -54.78134766 37.47207031 -56.15234375 37.53125 C-57.09207031 37.5621875 -58.03179687 37.593125 -59 37.625 C-59.90878906 37.66367187 -60.81757813 37.70234375 -61.75390625 37.7421875 C-64.50243036 37.8516593 -67.25018701 37.93076712 -70 38 C-71.40958984 38.04592285 -71.40958984 38.04592285 -72.84765625 38.09277344 C-73.74355469 38.11114258 -74.63945312 38.12951172 -75.5625 38.1484375 C-76.77099609 38.1781665 -76.77099609 38.1781665 -78.00390625 38.20849609 C-80 38 -80 38 -82 36 C-82.14507695 33.25514407 -82.18652423 30.61519457 -82.125 27.875 C-82.11597656 27.12089844 -82.10695313 26.36679687 -82.09765625 25.58984375 C-82.0740687 23.72642746 -82.03819719 21.86317407 -82 20 C-84.31 20 -86.62 20 -89 20 C-89 25.94 -89 31.88 -89 38 C-91.48754786 39.24377393 -93.22655301 39.13306235 -96 39.125 C-96.886875 39.12757813 -97.77375 39.13015625 -98.6875 39.1328125 C-101 39 -101 39 -103 38 C-103 32.06 -103 26.12 -103 20 C-105.64 20 -108.28 20 -111 20 C-110.62875 20.639375 -110.2575 21.27875 -109.875 21.9375 C-108.6202887 26.32898956 -109.23073386 29.81169298 -111 34 C-115.07196969 37.87806637 -119.44774717 39.09357729 -125 39 C-128.95646167 38.53241817 -132.15436133 37.64535583 -135.375 35.1875 C-137.88960889 31.80244958 -139.19341137 29.4505853 -138.625 25.1875 C-138.41875 24.465625 -138.2125 23.74375 -138 23 C-137.34 23 -136.68 23 -136 23 C-136.33 22.34 -136.66 21.68 -137 21 C-137.66739635 16.14707508 -137.75085716 13.00114288 -134.75 9 C-130.13132056 5.64096041 -125.65937601 5.36766749 -120 6 C-117.54380653 6.82351906 -115.34411586 7.87482439 -113 9 C-112.34 9 -111.68 9 -111 9 C-110.34 8.34 -109.68 7.68 -109 7 C-106.51660156 6.78881836 -106.51660156 6.78881836 -103.390625 6.83984375 C-101.67842773 6.85712524 -101.67842773 6.85712524 -99.93164062 6.87475586 C-98.71669922 6.89546143 -97.50175781 6.91616699 -96.25 6.9375 C-87.56960537 7.02482906 -79.04754288 7.00486234 -70.40625 6.12109375 C-68 6 -68 6 -65 7 C-64.67 6.67 -64.34 6.34 -64 6 C-61.69416239 5.71140591 -59.37925934 5.49360708 -57.0625 5.3125 C-55.79535156 5.20550781 -54.52820313 5.09851563 -53.22265625 4.98828125 C-50 5 -50 5 -48 7 C-47.61972656 6.50886719 -47.23945313 6.01773437 -46.84765625 5.51171875 C-44.31121213 3.43644629 -42.66928517 3.69631065 -39.4375 3.8125 C-38.46683594 3.83957031 -37.49617188 3.86664063 -36.49609375 3.89453125 C-35.67238281 3.92933594 -34.84867187 3.96414063 -34 4 C-31.9454349 4.15847958 -31.9454349 4.15847958 -30.1640625 3.0078125 C-27.69364048 1.85732715 -26.08057873 1.79356118 -23.375 1.875 C-22.21097656 1.90207031 -22.21097656 1.90207031 -21.0234375 1.9296875 C-20.02183594 1.96449219 -20.02183594 1.96449219 -19 2 C-16.67642489 2.18490007 -16.67642489 2.18490007 -14 0 C-9.04853963 -1.04742431 -4.96480079 -0.91190219 0 0 Z " fill="#F7F7FF" transform="translate(399,378)"/>
<path d="M0 0 C-1.19302734 0.29390625 -1.19302734 0.29390625 -2.41015625 0.59375 C-5.9717178 1.47747436 -9.53069195 2.37082816 -13.08886719 3.26806641 C-15.16958583 3.79121254 -17.25105217 4.31138846 -19.33300781 4.82958984 C-93.73990045 23.38605334 -169.51674747 52.79153425 -226.54296875 105.7265625 C-228.72099653 107.74184416 -230.93609286 109.69272436 -233.1875 111.625 C-240.0439123 117.61739286 -246.03728876 124.05787671 -251.72265625 131.171875 C-253.17793505 132.9791166 -254.66258871 134.76334013 -256.18359375 136.515625 C-278.44563825 162.38880328 -292.76636463 196.76478096 -290.8203125 231.13671875 C-288.40429121 255.91326362 -276.57555694 277.16120651 -259.65234375 295.0390625 C-258 297 -258 297 -258 299 C-273.13051704 292.54016738 -285.85018129 270.38313142 -291.93896484 255.7421875 C-302.71263386 227.69380484 -301.11082044 198.30696962 -289.10498047 170.96142578 C-282.33517864 156.1195232 -273.77297935 142.26224221 -263 130 C-262.06220703 128.89785156 -262.06220703 128.89785156 -261.10546875 127.7734375 C-249.89434926 114.90386838 -237.6586073 102.26790114 -224 92 C-222.76913164 91.05260229 -221.53869596 90.10464227 -220.30859375 89.15625 C-187.27872706 63.86467096 -43.49541324 -15.05610458 0 0 Z " fill="#191816" transform="translate(363,65)"/>
<path d="M0 0 C6.77833304 4.13875534 11.38038428 8.92264918 13.81640625 16.63671875 C13.89890625 17.50296875 13.98140625 18.36921875 14.06640625 19.26171875 C14.12957031 19.91914062 14.19273437 20.5765625 14.2578125 21.25390625 C14.66989921 28.93732951 12.06203176 34.90779415 7.50390625 41.01171875 C2.45151014 46.47136089 -4.67201147 49.47905135 -12.05859375 49.82421875 C-19.60131451 49.3819356 -25.90490611 46.01424019 -31.4296875 40.9765625 C-36.62654337 35.05079697 -38.37137057 27.95142409 -38.26953125 20.2421875 C-37.48786659 13.30718593 -34.10890698 8.01098803 -29.05859375 3.32421875 C-20.18894334 -3.67900616 -10.19787852 -5.19927617 0 0 Z " fill="#FC5203" transform="translate(672.93359375,102.73828125)"/>
<path d="M0 0 C1.3503418 2.45263672 1.3503418 2.45263672 2.69921875 5.6796875 C3.18583984 6.83597656 3.67246094 7.99226563 4.17382812 9.18359375 C4.67333984 10.40175781 5.17285156 11.61992188 5.6875 12.875 C6.19861328 14.08542969 6.70972656 15.29585937 7.23632812 16.54296875 C11 25.57779122 11 25.57779122 11 29 C7.37821822 30.88510773 3.7487036 32.75428152 0.11132812 34.60913086 C-1.12461817 35.24218048 -2.35837521 35.87952355 -3.58984375 36.52124023 C-5.36135279 37.44342498 -7.14153002 38.34889755 -8.921875 39.25390625 C-10.52434082 40.07870483 -10.52434082 40.07870483 -12.15917969 40.92016602 C-15 42 -15 42 -17.20507812 42.02661133 C-20.00992797 40.42236845 -20.57962642 38.26712418 -21.796875 35.3203125 C-22.28027344 34.16402344 -22.76367188 33.00773437 -23.26171875 31.81640625 C-23.99841797 29.98916016 -23.99841797 29.98916016 -24.75 28.125 C-25.25660156 26.91457031 -25.76320313 25.70414063 -26.28515625 24.45703125 C-30 15.45529397 -30 15.45529397 -30 12 C-26.06413105 10.01757739 -22.12603411 8.03962168 -18.1875 6.0625 C-17.06794922 5.49853516 -15.94839844 4.93457031 -14.79492188 4.35351562 C-13.18520508 3.54624023 -13.18520508 3.54624023 -11.54296875 2.72265625 C-10.0583313 1.97640991 -10.0583313 1.97640991 -8.54370117 1.21508789 C-3.5339645 -1.17798817 -3.5339645 -1.17798817 0 0 Z " fill="#83ADD1" transform="translate(527,108)"/>
<path d="M0 0 C3.77046166 4.68908323 5.85842907 10.02100559 8.25 15.5 C8.72179687 16.54542969 9.19359375 17.59085938 9.6796875 18.66796875 C10.12054688 19.67472656 10.56140625 20.68148437 11.015625 21.71875 C11.42071289 22.63591797 11.82580078 23.55308594 12.24316406 24.49804688 C13.09154397 27.30262664 13.36222359 28.40096281 12 31 C9.53149414 32.64746094 9.53149414 32.64746094 6.28515625 34.234375 C5.12435547 34.80800781 3.96355469 35.38164063 2.76757812 35.97265625 C2.15986572 36.26414551 1.55215332 36.55563477 0.92602539 36.85595703 C-0.9334552 37.74805947 -2.78262575 38.65907633 -4.63085938 39.57421875 C-13.67811969 44 -13.67811969 44 -16 44 C-17.74218769 40.23471255 -19.46898182 36.46278546 -21.18188477 32.68408203 C-21.76657131 31.39994374 -22.35541055 30.11768772 -22.94848633 28.83740234 C-23.80090817 26.99537091 -24.63810286 25.14705775 -25.47265625 23.296875 C-25.98062744 22.18666992 -26.48859863 21.07646484 -27.01196289 19.93261719 C-28 17 -28 17 -28.03320312 14.80859375 C-26.37663866 11.90882307 -23.98196867 11.15440403 -20.99609375 9.765625 C-20.39821548 9.48273621 -19.80033722 9.19984741 -19.18434143 8.90838623 C-17.2747669 8.00864464 -15.35659076 7.12923313 -13.4375 6.25 C-12.14065927 5.64324358 -10.8444266 5.03518572 -9.54882812 4.42578125 C-6.37280017 2.93535936 -3.18875572 1.46302781 0 0 Z " fill="#84ADD2" transform="translate(444,76)"/>
<path d="M0 0 C4.74376691 4.03533883 6.41094761 10.46612273 8.75 16.0625 C9.52923828 17.87717773 9.52923828 17.87717773 10.32421875 19.72851562 C10.81019531 20.88158203 11.29617188 22.03464844 11.796875 23.22265625 C12.24385742 24.28234619 12.69083984 25.34203613 13.15136719 26.43383789 C14 29 14 29 13 31 C11.39537034 31.90799633 9.74702254 32.73935501 8.08203125 33.53125 C7.07462891 34.01207031 6.06722656 34.49289063 5.02929688 34.98828125 C3.96775391 35.48714844 2.90621094 35.98601562 1.8125 36.5 C0.77029297 36.99886719 -0.27191406 37.49773437 -1.34570312 38.01171875 C-6.17825788 40.30357243 -10.89497326 42.37902825 -16 44 C-17.73963642 40.0726102 -19.46656198 36.13995326 -21.18188477 32.2019043 C-21.76727952 30.86281582 -22.35613072 29.52523286 -22.94848633 28.18920898 C-23.7990013 26.26931225 -24.63696767 24.34435687 -25.47265625 22.41796875 C-25.98062744 21.26063232 -26.48859863 20.1032959 -27.01196289 18.91088867 C-28 16 -28 16 -27 13 C-24.40795898 11.46606445 -24.40795898 11.46606445 -20.99609375 9.86328125 C-20.39821548 9.57897751 -19.80033722 9.29467377 -19.18434143 9.00175476 C-17.27313204 8.09564391 -15.3555694 7.20398352 -13.4375 6.3125 C-12.14083238 5.70080939 -10.84460232 5.08819031 -9.54882812 4.47460938 C-6.37089271 2.97226499 -3.18710585 1.48280834 0 0 Z " fill="#5C789E" transform="translate(468,134)"/>
<path d="M0 0 C4.23277327 1.68335075 6.49535421 4.92420544 9.3359375 8.390625 C9.90828125 9.06802734 10.480625 9.74542969 11.0703125 10.44335938 C18.5017887 19.28335955 18.5017887 19.28335955 19.3359375 22.453125 C18.46206252 26.12339992 16.42202807 27.61935839 13.6328125 30.0390625 C11.7109375 31.078125 11.7109375 31.078125 9.6796875 30.96484375 C7.2522948 29.87155378 6.11796832 28.58691353 4.4609375 26.515625 C3.94015625 25.87496094 3.419375 25.23429687 2.8828125 24.57421875 C2.49609375 24.08050781 2.109375 23.58679688 1.7109375 23.078125 C1.0509375 23.738125 0.3909375 24.398125 -0.2890625 25.078125 C-3.1640625 25.515625 -3.1640625 25.515625 -6.2890625 25.078125 C-8.7265625 23.015625 -8.7265625 23.015625 -10.2890625 20.078125 C-10.1015625 16.765625 -10.1015625 16.765625 -9.2890625 13.078125 C-9.2262061 11.70314125 -9.16371011 10.32814097 -9.1015625 8.953125 C-8.31694688 5.21111203 -8.15187228 4.42796345 -5.5390625 2.015625 C-2.2890625 0.078125 -2.2890625 0.078125 0 0 Z " fill="#F7F7FF" transform="translate(619.2890625,276.921875)"/>
<path d="M0 0 C3.3 0 6.6 0 10 0 C10.81814192 3.27256768 11.11871834 5.47993899 11.09765625 8.765625 C11.09443359 9.65507812 11.09121094 10.54453125 11.08789062 11.4609375 C11.07951172 12.38132812 11.07113281 13.30171875 11.0625 14.25 C11.05798828 15.18585938 11.05347656 16.12171875 11.04882812 17.0859375 C11.03706918 19.39069041 11.02063426 21.69531227 11 24 C9.02 24 7.04 24 5 24 C4.67 18.72 4.34 13.44 4 8 C3.79503906 9.14339844 3.59007812 10.28679687 3.37890625 11.46484375 C3.1069769 12.95576676 2.83483026 14.44665016 2.5625 15.9375 C2.42779297 16.69224609 2.29308594 17.44699219 2.15429688 18.22460938 C1.11328125 23.88671875 1.11328125 23.88671875 0 25 C-1.65 25 -3.3 25 -5 25 C-6.32 21.37 -7.64 17.74 -9 14 C-9.33 17.63 -9.66 21.26 -10 25 C-11.98 25 -13.96 25 -16 25 C-17.32915021 17.02509872 -17.08801359 9.05813281 -17 1 C-13.7 1 -10.4 1 -7 1 C-4 8.5 -4 8.5 -4 13 C-3.34 13 -2.68 13 -2 13 C-1.34 8.71 -0.68 4.42 0 0 Z " fill="#0C0CFF" transform="translate(337,387)"/>
<path d="M0 0 C1.8125 1.5 1.8125 1.5 3 3 C2.67 3.66 2.34 4.32 2 5 C1.01 4.67 0.02 4.34 -1 4 C-0.34 4.495 0.32 4.99 1 5.5 C3.34303485 8.42879356 3.45323949 10.32757194 3.2734375 14.02734375 C2.92146788 16.56655314 2.14364397 18.71271206 1 21 C-0.65 21 -2.3 21 -4 21 C-4.66 19.35 -5.32 17.7 -6 16 C-6.33 18.64 -6.66 21.28 -7 24 C-2.41266107 24.45873389 -0.58621803 24.45725006 3.125 21.5625 C4.07375 20.716875 5.0225 19.87125 6 19 C8.875 18.1875 8.875 18.1875 11 18 C10.835 18.598125 10.67 19.19625 10.5 19.8125 C9.8885876 22.11344336 9.8885876 22.11344336 10 25 C8.6875 26.60546875 8.6875 26.60546875 7 28.1875 C6.443125 28.71730469 5.88625 29.24710938 5.3125 29.79296875 C4.879375 30.19128906 4.44625 30.58960938 4 31 C5.98 31.33 7.96 31.66 10 32 C10 32.33 10 32.66 10 33 C0.83715821 33.68864782 -5.70365631 31.88075998 -12.875 26.0625 C-15.50841889 23.6311807 -17.59012796 21.34844609 -19 18 C-18.79250839 14.57638843 -17.06258869 12.64011352 -15 10 C-14.71640625 9.36578125 -14.4328125 8.7315625 -14.140625 8.078125 C-12.80331179 5.64165026 -11.39639337 4.42250817 -9.1875 2.75 C-8.52105469 2.22921875 -7.85460937 1.7084375 -7.16796875 1.171875 C-4.55841266 -0.23869586 -2.92659676 -0.33057904 0 0 Z " fill="#F99802" transform="translate(656,119)"/>
<path d="M0 0 C0.53625 0.495 1.0725 0.99 1.625 1.5 C1.3775 2.5725 1.13 3.645 0.875 4.75 C0.7925 5.9875 0.71 7.225 0.625 8.5 C1.91603643 9.8743291 3.2506709 11.20896357 4.625 12.5 C5.0625 15.5625 5.0625 15.5625 4.625 18.5 C2.34836274 21.49596565 -0.05307965 22.24463276 -3.625 23.1875 C-4.53765625 23.43886719 -5.4503125 23.69023437 -6.390625 23.94921875 C-9.77002807 24.57290439 -12.94591564 24.58956564 -16.375 24.5 C-17.04832993 21.41808296 -17.71248859 18.3342592 -18.375 15.25 C-18.56578125 14.37730469 -18.7565625 13.50460937 -18.953125 12.60546875 C-19.13359375 11.76113281 -19.3140625 10.91679687 -19.5 10.046875 C-19.66757812 9.27182617 -19.83515625 8.49677734 -20.0078125 7.69824219 C-20.375 5.5 -20.375 5.5 -20.375 1.5 C-18.50243583 0.99095343 -16.62680659 0.49317545 -14.75 0 C-13.70585937 -0.2784375 -12.66171875 -0.556875 -11.5859375 -0.84375 C-7.2815594 -1.72347691 -3.80979406 -2.40618572 0 0 Z " fill="#0A0AFF" transform="translate(432.375,375.5)"/>
<path d="M0 0 C3.42934952 2.75838983 6.64725681 5.80927914 7.37109375 10.3046875 C7.48223802 14.60662441 7.52077721 17.20147495 5.125 20.875 C0.31936293 24.14283321 -5.0950494 27 -11 27 C-12.14928044 23.91794058 -13.29381663 20.83414029 -14.4375 17.75 C-14.76298828 16.87730469 -15.08847656 16.00460937 -15.42382812 15.10546875 C-15.73642578 14.26113281 -16.04902344 13.41679687 -16.37109375 12.546875 C-16.65911865 11.77182617 -16.94714355 10.99677734 -17.24389648 10.19824219 C-17.9494645 8.14692336 -18.5098754 6.11195321 -19 4 C-6.74418605 -1.04651163 -6.74418605 -1.04651163 0 0 Z " fill="#0909FF" transform="translate(515,348)"/>
<path d="M0 0 C1.00488281 1.70239258 1.00488281 1.70239258 1.703125 3.89453125 C1.9609375 4.68537109 2.21875 5.47621094 2.484375 6.29101562 C2.73703125 7.12310547 2.9896875 7.95519531 3.25 8.8125 C3.518125 9.63298828 3.78625 10.45347656 4.0625 11.29882812 C5.27940837 15.12650164 6 17.92220509 6 22 C2.59049208 24.07005838 2.59049208 24.07005838 0.15625 23.78125 C-2.60034577 22.78248342 -4.47439585 21.27806218 -6.75 19.4375 C-7.94882812 18.47650391 -7.94882812 18.47650391 -9.171875 17.49609375 C-9.77515625 17.00238281 -10.3784375 16.50867188 -11 16 C-11 18.69787075 -10.67603227 20.61012698 -10 23.1875 C-9.67 24.445625 -9.34 25.70375 -9 27 C-11.31 27.66 -13.62 28.32 -16 29 C-17.20213133 25.56744035 -18.38414794 22.12828802 -19.5625 18.6875 C-20.07586914 17.22280273 -20.07586914 17.22280273 -20.59960938 15.72851562 C-20.91865234 14.79072266 -21.23769531 13.85292969 -21.56640625 12.88671875 C-21.86490479 12.02264404 -22.16340332 11.15856934 -22.47094727 10.26831055 C-23 8 -23 8 -22 5 C-18.150046 3.9089893 -16.57807543 3.68077558 -13.0078125 5.65234375 C-12.05648438 6.40644531 -11.10515625 7.16054688 -10.125 7.9375 C-9.15820312 8.68902344 -8.19140625 9.44054687 -7.1953125 10.21484375 C-6.47085937 10.80394531 -5.74640625 11.39304687 -5 12 C-5.33 10.7625 -5.66 9.525 -6 8.25 C-6.79891159 5.25408155 -7 3.19892281 -7 0 C-3.88416541 -1.03861153 -2.94475494 -1.23672215 0 0 Z " fill="#0909FF" transform="translate(490,357)"/>
<path d="M0 0 C1.36621094 1.6965332 1.36621094 1.6965332 2.734375 4.05078125 C3.22550781 4.89447266 3.71664062 5.73816406 4.22265625 6.60742188 C4.72667969 7.50009766 5.23070312 8.39277344 5.75 9.3125 C6.52923828 10.63411133 6.52923828 10.63411133 7.32421875 11.98242188 C10.14824525 16.90761398 10.14824525 16.90761398 11 19 C10 22 10 22 7.3359375 23.3671875 C3.05918582 24.17846826 1.38626215 23.21459008 -2.375 21.125 C-3.96441406 20.26261719 -3.96441406 20.26261719 -5.5859375 19.3828125 C-6.38257813 18.92648437 -7.17921875 18.47015625 -8 18 C-7.62746094 18.61488281 -7.25492188 19.22976563 -6.87109375 19.86328125 C-6.39800781 20.67152344 -5.92492187 21.47976563 -5.4375 22.3125 C-4.96183594 23.11300781 -4.48617187 23.91351563 -3.99609375 24.73828125 C-3 27 -3 27 -4 30 C-6.5625 31.1875 -6.5625 31.1875 -9 32 C-13.30710818 25.14208017 -17.54605189 18.33963973 -21 11 C-16.77005348 7.97860963 -16.77005348 7.97860963 -13.75 8.0625 C-9.70107044 9.44281689 -5.88259347 11.20357616 -2 13 C-3.65 9.7 -5.3 6.4 -7 3 C-3 0 -3 0 0 0 Z " fill="#0808FF" transform="translate(570,318)"/>
<path d="M0 0 C-0.9765625 1.69270833 -1.953125 3.38541667 -2.9296875 5.078125 C-4.01399882 7.02513657 -5.01764857 8.99989709 -6 11 C-5.44570313 11.60328125 -4.89140625 12.2065625 -4.3203125 12.828125 C-3.59585937 13.62734375 -2.87140625 14.4265625 -2.125 15.25 C-1.40570313 16.03890625 -0.68640625 16.8278125 0.0546875 17.640625 C1.76935483 19.72026168 2.92980873 21.54419267 4 24 C0.915704 24.87731086 -1.80051486 25.41099077 -5 25 C-7.61133222 22.68409122 -9.30698958 20.03414024 -11 17 C-13.35843975 18.95713056 -13.35843975 18.95713056 -13.5 22.5625 C-13.665 23.696875 -13.83 24.83125 -14 26 C-16.70879335 27.35439668 -19.00933268 27.06501451 -22 27 C-23.29901921 18.95072024 -24.33853295 11.16240568 -24 3 C-20.535 2.505 -20.535 2.505 -17 2 C-16.34 4.31 -15.68 6.62 -15 9 C-14.68546875 8.43410156 -14.3709375 7.86820312 -14.046875 7.28515625 C-13.61890625 6.55167969 -13.1909375 5.81820313 -12.75 5.0625 C-12.33234375 4.33160156 -11.9146875 3.60070312 -11.484375 2.84765625 C-8.53545422 -0.82297409 -4.40253697 -0.10005766 0 0 Z " fill="#0C0CFF" transform="translate(395,381)"/>
<path d="M0 0 C2.14413657 3.21620485 3.66081546 6.53136846 5.1875 10.0625 C5.47302734 10.69994141 5.75855469 11.33738281 6.05273438 11.99414062 C6.76427903 13.63709898 7.38897327 15.31706973 8 17 C6.58934092 19.82131816 4.81213568 20.22596674 1.9765625 21.56640625 C0.955625 22.05173828 -0.0653125 22.53707031 -1.1171875 23.03710938 C-2.72980469 23.79217773 -2.72980469 23.79217773 -4.375 24.5625 C-5.44234375 25.06974609 -6.5096875 25.57699219 -7.609375 26.09960938 C-15.51486137 29.83828712 -15.51486137 29.83828712 -19 31 C-20 29 -20 29 -19.61035156 27.21582031 C-19.25408691 26.15766113 -19.25408691 26.15766113 -18.890625 25.078125 C-18.63023437 24.29953125 -18.36984375 23.5209375 -18.1015625 22.71875 C-17.82054687 21.9040625 -17.53953125 21.089375 -17.25 20.25 C-16.98445313 19.45078125 -16.71890625 18.6515625 -16.4453125 17.828125 C-13.38395029 8.79264819 -13.38395029 8.79264819 -11 5 C-9.0625 4.3359375 -9.0625 4.3359375 -7 4.375 C-3.57283076 4.28503613 -3.57283076 4.28503613 -1 1.9375 C-0.67 1.298125 -0.34 0.65875 0 0 Z " fill="#85AED2" transform="translate(474,146)"/>
<path d="M0 0 C-1.15173355 2.46800047 -2.04783565 4.04783565 -4 6 C-6.31765729 6.71927295 -8.65095874 7.3909893 -11 8 C-10.54177532 11.46941546 -10.10868317 14.67395049 -9 18 C-5.62599422 18.41725678 -5.62599422 18.41725678 -2 18 C0.00864359 15.6273026 0.00864359 15.6273026 1 13 C-0.65 13.66 -2.3 14.32 -4 15 C-4.66 14.34 -5.32 13.68 -6 13 C-6 11.125 -6 11.125 -5 9 C0.11111111 5 0.11111111 5 4 5 C6.24403696 7.75695969 7.77726006 10.01004473 8.5625 13.5 C7.54728578 18.01206322 4.79353138 20.76993947 1.09765625 23.3046875 C-2.1249946 25.09848548 -4.40515148 25.98810303 -8.125 26.0625 C-12.69100869 24.37506201 -15.92370529 21.8590545 -18.375 17.625 C-19.19739578 14.17093773 -19.43529566 11.54455038 -19 8 C-13.55758043 -0.08588051 -9.18174122 -1.66031486 0 0 Z " fill="#0C0CFF" transform="translate(598,305)"/>
<path d="M0 0 C3.73189258 1.59323106 4.5485241 5.24716034 6.03515625 8.80859375 C7.48528454 13.26134062 8.22269584 17.27515666 7.03125 21.8671875 C4.66775441 25.08006432 1.80408335 26.60957638 -1.96875 27.8671875 C-8.93364468 28.54120957 -8.93364468 28.54120957 -12.65625 26.1171875 C-16.34800245 20.92877865 -19.96875 14.35348423 -19.96875 7.8671875 C-17.65875 7.2071875 -15.34875 6.5471875 -12.96875 5.8671875 C-12.59363281 6.86621094 -12.21851563 7.86523438 -11.83203125 8.89453125 C-11.31614073 10.19832729 -10.79915633 11.50169088 -10.28125 12.8046875 C-10.03697266 13.46404297 -9.79269531 14.12339844 -9.54101562 14.80273438 C-8.71145208 16.97135429 -8.71145208 16.97135429 -6.96875 19.8671875 C-4.42864021 21.01120332 -4.42864021 21.01120332 -1.96875 20.8671875 C-1.63875 20.5371875 -1.30875 20.2071875 -0.96875 19.8671875 C-1.29952378 14.57480704 -2.82784331 10.54287002 -5.12890625 5.78515625 C-5.96875 3.8671875 -5.96875 3.8671875 -5.96875 1.8671875 C-3.84884847 0.58010443 -2.50827169 -0.1692088 0 0 Z " fill="#0909FF" transform="translate(542.96875,333.1328125)"/>
<path d="M0 0 C1.41040039 1.49707031 1.41040039 1.49707031 2.84765625 3.578125 C3.37037109 4.32707031 3.89308594 5.07601563 4.43164062 5.84765625 C4.96982422 6.64042969 5.50800781 7.43320312 6.0625 8.25 C6.60455078 9.02730469 7.14660156 9.80460937 7.70507812 10.60546875 C10.04579782 13.99068759 12.22704778 17.27789507 14 21 C11.09399739 22.25664978 9.20395416 23 6 23 C5.67 22.34 5.34 21.68 5 21 C1.04 21.495 1.04 21.495 -3 22 C-3.33 23.32 -3.66 24.64 -4 26 C-6.31 26.66 -8.62 27.32 -11 28 C-10.44944191 19.31992454 -9.84592214 10.65720313 -9 2 C-3.375 0 -3.375 0 0 0 Z " fill="#0909FF" transform="translate(454,367)"/>
<path d="M0 0 C5.45064162 1.59675216 10.0375 4.94882813 13.16015625 9.6328125 C13.69460136 13.10670575 13.78215455 15.52822931 12.02734375 18.64453125 C9.41162789 22.02031114 8.13104951 23.50695597 3.78515625 24.0703125 C2.48578125 23.85375 2.48578125 23.85375 1.16015625 23.6328125 C2.63707933 18.95588942 2.63707933 18.95588942 5.28515625 17.3203125 C5.90390625 17.0934375 6.52265625 16.8665625 7.16015625 16.6328125 C6.66259533 13.87639834 6.66259533 13.87639834 5.16015625 11.6328125 C4.47953125 13.086875 4.47953125 13.086875 3.78515625 14.5703125 C2.16015625 17.6328125 2.16015625 17.6328125 0.16015625 18.6328125 C-4.21346389 19.12793931 -6.15939619 19.12505116 -9.77734375 16.5078125 C-11.83984375 13.6328125 -11.83984375 13.6328125 -12.52734375 10.7578125 C-11.1187817 4.35525774 -7.08317869 -0.62779618 0 0 Z " fill="#0B0BFF" transform="translate(655.83984375,246.3671875)"/>
<path d="M0 0 C5.29210853 1.67846726 9.10398122 6.17940933 12.09375 10.6640625 C12.68597616 15.14806058 12.41143942 17.14420709 10.03125 21.0390625 C6.61273875 24.09390234 4.60638341 24.48709648 0.09375 24.6640625 C0.09375 20.6640625 0.09375 20.6640625 2.09375 18.6640625 C4.21875 18.0390625 4.21875 18.0390625 6.09375 17.6640625 C5.76375 16.3440625 5.43375 15.0240625 5.09375 13.6640625 C4.2275 14.4890625 3.36125 15.3140625 2.46875 16.1640625 C0.12420595 18.09486348 -0.89035359 18.66081833 -3.96875 19.2890625 C-8.03194154 18.42455366 -9.48480492 17.01135423 -11.90625 13.6640625 C-12.60817443 10.15444033 -12.7149755 8.00507642 -10.83203125 4.8828125 C-7.7824898 1.34033148 -4.88527639 -0.35700097 0 0 Z " fill="#0B0BFF" transform="translate(640.90625,264.3359375)"/>
<path d="M0 0 C2.296875 0.859375 2.296875 0.859375 4 2 C4.75 4.625 4.75 4.625 5 7 C2.69 7 0.38 7 -2 7 C-2.33 6.34 -2.66 5.68 -3 5 C-4.32 5 -5.64 5 -7 5 C-7 5.66 -7 6.32 -7 7 C-5.96939453 7.38091797 -5.96939453 7.38091797 -4.91796875 7.76953125 C-4.01691406 8.11371094 -3.11585938 8.45789063 -2.1875 8.8125 C-0.84751953 9.31716797 -0.84751953 9.31716797 0.51953125 9.83203125 C2.96753173 10.98471179 4.39852232 11.83077438 6 14 C5.87507069 17.49802066 5.72647123 20.00935741 3.625 22.875 C-0.44098151 25.68991028 -5.25903711 25.59885847 -10 25 C-13.43803208 23.06610695 -14.69276462 22.0398736 -15.8125 18.25 C-15.874375 17.5075 -15.93625 16.765 -16 16 C-12.625 15.8125 -12.625 15.8125 -9 16 C-8.34 16.99 -7.68 17.98 -7 19 C-4.41619823 19.25030977 -4.41619823 19.25030977 -2 19 C-2.33 18.01 -2.66 17.02 -3 16 C-5.26044171 14.86321671 -5.26044171 14.86321671 -7.9375 14 C-12.78193146 12.3271028 -12.78193146 12.3271028 -15 9 C-15.4787532 5.88810418 -15.24714242 4.43544141 -13.6875 1.6875 C-9.43613536 -0.98196152 -4.89155957 -0.61863842 0 0 Z " fill="#0909FF" transform="translate(280,388)"/>
<path d="M0 0 C-1.98 5.28 -3.96 10.56 -6 16 C-8.31 16 -10.62 16 -13 16 C-16.25688994 17.78208561 -16.25688994 17.78208561 -19 20 C-19.99 20.66 -20.98 21.32 -22 22 C-25 21 -25 21 -26.75 17.6875 C-28.35282966 12.9591525 -28.35282966 12.9591525 -27 10 C-24.83862305 8.52026367 -24.83862305 8.52026367 -22.01171875 7.16796875 C-20.99529297 6.68005859 -19.97886719 6.19214844 -18.93164062 5.68945312 C-17.86107422 5.19380859 -16.79050781 4.69816406 -15.6875 4.1875 C-14.62853516 3.67251953 -13.56957031 3.15753906 -12.47851562 2.62695312 C-4.51803489 -1.12950872 -4.51803489 -1.12950872 0 0 Z " fill="#5D7CA3" transform="translate(444,79)"/>
<path d="M0 0 C-3.07517084 10.55808656 -3.07517084 10.55808656 -5 15 C-6.216875 14.896875 -7.43375 14.79375 -8.6875 14.6875 C-12.38055861 14.66140065 -12.82765597 14.85063517 -15.8125 17.4375 C-16.534375 18.283125 -17.25625 19.12875 -18 20 C-18.99 20.33 -19.98 20.66 -21 21 C-21.33 21.99 -21.66 22.98 -22 24 C-22.66 24 -23.32 24 -24 24 C-24.67354499 22.56570999 -25.33859701 21.12742943 -26 19.6875 C-26.37125 18.88699219 -26.7425 18.08648437 -27.125 17.26171875 C-28 15 -28 15 -28 12 C-24.08990623 9.98695309 -20.17092141 7.99186396 -16.25 6 C-15.13882812 5.42765625 -14.02765625 4.8553125 -12.8828125 4.265625 C-11.81289063 3.72421875 -10.74296875 3.1828125 -9.640625 2.625 C-8.16384277 1.87089844 -8.16384277 1.87089844 -6.65722656 1.1015625 C-4 0 -4 0 0 0 Z " fill="#63779B" transform="translate(525,108)"/>
<path d="M0 0 C7.59 0 15.18 0 23 0 C23 1.98 23 3.96 23 6 C20.69 6 18.38 6 16 6 C16 11.94 16 17.88 16 24 C13.36 24 10.72 24 8 24 C8 18.06 8 12.12 8 6 C5.36 6 2.72 6 0 6 C0 4.02 0 2.04 0 0 Z " fill="#0D0DFF" transform="translate(291,389)"/>
<path d="M0 0 C3.125 0.25 3.125 0.25 5 1.625 C6.125 3.25 6.125 3.25 6.125 5.25 C7.1975 5.0025 8.27 4.755 9.375 4.5 C13.125 4.25 13.125 4.25 15.5625 5.75 C17.72027688 9.202443 17.67857317 11.23659451 17.125 15.25 C15.09833762 18.95390021 13.64455484 20.90363011 10.125 23.25 C7.4375 23.375 7.4375 23.375 5.125 23.25 C5.3125 20.875 5.3125 20.875 6.125 18.25 C8.6875 16.9375 8.6875 16.9375 11.125 16.25 C10.795 14.6 10.465 12.95 10.125 11.25 C7.25775314 11.82344937 6.2635485 12.1114515 4.125 14.25 C1.125 12.25 1.125 12.25 0.4375 9.625 C0.334375 8.84125 0.23125 8.0575 0.125 7.25 C-0.535 7.25 -1.195 7.25 -1.875 7.25 C-1.813125 8.178125 -1.75125 9.10625 -1.6875 10.0625 C-1.875 13.25 -1.875 13.25 -3.25 15.125 C-4.875 16.25 -4.875 16.25 -6.875 16.25 C-8.4297669 13.14046621 -8.16144437 10.68733239 -7.875 7.25 C-3.90805085 0.33983051 -3.90805085 0.33983051 0 0 Z " fill="#0C0CFF" transform="translate(665.875,225.75)"/>
<path d="M0 0 C-0.31022095 0.77077881 -0.31022095 0.77077881 -0.62670898 1.55712891 C-1.5698638 3.91064581 -2.50373393 6.26774319 -3.4375 8.625 C-3.76298828 9.43324219 -4.08847656 10.24148437 -4.42382812 11.07421875 C-6.52547574 16.40417043 -8 21.2085741 -8 27 C-9.87988281 26.73852539 -9.87988281 26.73852539 -12 26 C-13.09667969 24.32592773 -13.09667969 24.32592773 -13.921875 22.18359375 C-14.22480469 21.41982422 -14.52773438 20.65605469 -14.83984375 19.86914062 C-15.14019531 19.06669922 -15.44054687 18.26425781 -15.75 17.4375 C-16.06582031 16.63119141 -16.38164062 15.82488281 -16.70703125 14.99414062 C-17.48523782 13.00146017 -18.24444266 11.00137801 -19 9 C-18.22011719 8.39542969 -17.44023437 7.79085937 -16.63671875 7.16796875 C-13.98999379 4.99177268 -12.10538653 2.68618281 -10 0 C-6.7169902 -1.6415049 -3.57454967 -0.51888624 0 0 Z " fill="#6E85A7" transform="translate(520,123)"/>
<path d="M0 0 C1.41031494 0.29861938 1.41031494 0.29861938 2.84912109 0.60327148 C-0.15087891 9.60327148 -3.15087891 18.60327148 -6.15087891 27.60327148 C-6.81087891 27.60327148 -7.47087891 27.60327148 -8.15087891 27.60327148 C-10.79087891 21.00327148 -13.43087891 14.40327148 -16.15087891 7.60327148 C-14.83087891 7.60327148 -13.51087891 7.60327148 -12.15087891 7.60327148 C-9.7791545 5.63258411 -7.70817588 3.47079574 -5.56494141 1.25561523 C-3.15087891 -0.39672852 -3.15087891 -0.39672852 0 0 Z " fill="#848EA9" transform="translate(460.15087890625,150.396728515625)"/>
<path d="M0 0 C-1.19302734 0.29390625 -1.19302734 0.29390625 -2.41015625 0.59375 C-5.9717178 1.47747436 -9.53069195 2.37082816 -13.08886719 3.26806641 C-15.16958583 3.79121254 -17.25105217 4.31138846 -19.33300781 4.82958984 C-37.4106241 9.3379978 -55.205671 14.365792 -72.95556641 20.03759766 C-77.28917728 21.40753303 -81.64116113 22.71290482 -86 24 C-85.62109375 21.7109375 -85.62109375 21.7109375 -84 19 C-80.83762222 17.39711734 -77.47469369 16.55047905 -74.0625 15.625 C-73.03906494 15.33246338 -72.01562988 15.03992676 -70.96118164 14.73852539 C-67.64694833 13.80171478 -64.32471945 12.89882004 -61 12 C-59.3927002 11.55454834 -59.3927002 11.55454834 -57.75292969 11.10009766 C-44.45541313 7.42287392 -31.07706267 4.25813672 -17.5625 1.5 C-16.27013428 1.23243896 -14.97776855 0.96487793 -13.64624023 0.68920898 C-11.84328491 0.33258179 -11.84328491 0.33258179 -10.00390625 -0.03125 C-8.93986572 -0.24330078 -7.8758252 -0.45535156 -6.77954102 -0.67382812 C-4.13372682 -0.98430751 -2.49218725 -0.85981396 0 0 Z " fill="#2E2E22" transform="translate(363,65)"/>
<path d="M0 0 C2.31 0.33 4.62 0.66 7 1 C4.03 8.92 1.06 16.84 -2 25 C-5.1219258 21.8780742 -6.57193637 18.97521869 -8.25 15 C-8.53101563 14.3709375 -8.81203125 13.741875 -9.1015625 13.09375 C-11.12326067 8.369782 -11.12326067 8.369782 -10 5 C-9.01 5 -8.02 5 -7 5 C-3.29937947 2.76639188 -3.29937947 2.76639188 0 0 Z " fill="#7489AA" transform="translate(431,94)"/>
<path d="M0 0 C1.48022421 1.61048394 2.88467453 3.29102118 4.25 5 C5.04792969 5.99644531 5.84585938 6.99289062 6.66796875 8.01953125 C9.50071641 11.63994409 12.28799324 15.2882731 15 19 C13.02 20.32 11.04 21.64 9 23 C6.03 19.37 3.06 15.74 0 12 C-1.93798263 14.77260299 -1.93798263 14.77260299 -3 17 C-4.32 16.34 -5.64 15.68 -7 15 C-6.744398 13.06043186 -6.46995354 11.12334011 -6.1875 9.1875 C-6.03667969 8.10855469 -5.88585937 7.02960938 -5.73046875 5.91796875 C-4.86146915 2.44661742 -3.86536356 0 0 0 Z " fill="#0909FF" transform="translate(620,281)"/>
<path d="M0 0 C2.64 0 5.28 0 8 0 C9.03387512 8.0125322 9.10466648 15.92905177 9 24 C6.69 24 4.38 24 2 24 C1.66231828 20.93796326 1.33063107 17.87530542 1 14.8125 C0.90460938 13.94818359 0.80921875 13.08386719 0.7109375 12.19335938 C0.27309811 8.11207075 -0.13621913 4.11211498 0 0 Z " fill="#0808FF" transform="translate(355,386)"/>
<path d="M0 0 C-7.10658549 1.88337071 -13.98503821 3.17547258 -21.2890625 3.84375 C-31.04971219 4.83674785 -40.46055254 6.88747309 -50 9.125 C-52.42578859 9.68468612 -54.85220072 10.2415444 -57.27905273 10.79660034 C-58.76890637 11.13830057 -60.25804295 11.48314692 -61.74633789 11.83157349 C-66.78229214 13 -66.78229214 13 -69 13 C-69 11.68 -69 10.36 -69 9 C-52.12105818 5.73795818 -35.24785317 2.71285658 -18.1875 0.5625 C-17.49769043 0.47319214 -16.80788086 0.38388428 -16.09716797 0.29187012 C-14.14273275 0.04107044 -12.18662122 -0.19655997 -10.23046875 -0.43359375 C-9.12082764 -0.56822021 -8.01118652 -0.70284668 -6.86791992 -0.84155273 C-4.26212795 -0.98551792 -2.45465968 -0.81598737 0 0 Z " fill="#F3DC35" transform="translate(384,61)"/>
<path d="M0 0 C-1.65 4.29 -3.3 8.58 -5 13 C-6.98 12.34 -8.96 11.68 -11 11 C-16.56648999 11.11596854 -19.08185425 13.36172181 -23 17 C-21.76697292 12.06789169 -20.28039122 9.78225429 -16 7 C-15.34 7 -14.68 7 -14 7 C-13.92394531 6.38769531 -13.84789062 5.77539062 -13.76953125 5.14453125 C-13 3 -13 3 -11.07421875 1.69921875 C-10.28660156 1.36535156 -9.49898438 1.03148438 -8.6875 0.6875 C-7.51767578 0.16736328 -7.51767578 0.16736328 -6.32421875 -0.36328125 C-4 -1 -4 -1 0 0 Z " fill="#4D5A81" transform="translate(444,79)"/>
<path d="M0 0 C1.8125 1.5 1.8125 1.5 3 3 C2.67 3.66 2.34 4.32 2 5 C1.01 4.67 0.02 4.34 -1 4 C-0.67 4.66 -0.34 5.32 0 6 C-0.69867187 6.10957031 -1.39734375 6.21914062 -2.1171875 6.33203125 C-3.48230469 6.56986328 -3.48230469 6.56986328 -4.875 6.8125 C-5.77992188 6.96332031 -6.68484375 7.11414063 -7.6171875 7.26953125 C-10.34412478 7.83051301 -10.34412478 7.83051301 -12 11 C-12.74192611 16.62990987 -11.81027352 21.68232152 -10 27 C-13.93544623 25.68818459 -15.74938163 23.04041273 -18.14453125 19.8515625 C-19 18 -19 18 -18.7265625 15.8984375 C-17.83933239 13.58019108 -16.52464402 11.95154434 -15 10 C-14.71640625 9.36578125 -14.4328125 8.7315625 -14.140625 8.078125 C-12.80331179 5.64165026 -11.39639337 4.42250817 -9.1875 2.75 C-8.52105469 2.22921875 -7.85460937 1.7084375 -7.16796875 1.171875 C-4.55841266 -0.23869586 -2.92659676 -0.33057904 0 0 Z " fill="#FB7603" transform="translate(656,119)"/>
<path d="M0 0 C-3.07517084 10.55808656 -3.07517084 10.55808656 -5 15 C-5.886875 14.67 -6.77375 14.34 -7.6875 14 C-10.70923347 13.08777857 -12.88373706 12.81669042 -16 13 C-16 12.01 -16 11.02 -16 10 C-15.34 9.67 -14.68 9.34 -14 9 C-13.34 9.33 -12.68 9.66 -12 10 C-12 9.34 -12 8.68 -12 8 C-12.99 7.67 -13.98 7.34 -15 7 C-12.87666387 4.69145075 -10.86387158 3.21587424 -8.0625 1.8125 C-7.39347656 1.46832031 -6.72445312 1.12414062 -6.03515625 0.76953125 C-4 0 -4 0 0 0 Z " fill="#586489" transform="translate(525,108)"/>
<path d="M0 0 C3.33840499 2.70251832 4.62176687 6.00312391 6 10 C5.76871663 13.46925048 5.4702708 14.5297292 3 17 C0.31160615 17.26991906 -2.29141936 17.08737357 -5 17 C-1.92482916 6.44191344 -1.92482916 6.44191344 0 2 C-0.66 1.67 -1.32 1.34 -2 1 C-1.34 0.67 -0.68 0.34 0 0 Z " fill="#588FBD" transform="translate(468,134)"/>
<path d="M0 0 C-0.47656412 1.79236067 -0.95633498 3.58386897 -1.4375 5.375 C-1.70433594 6.37273437 -1.97117187 7.37046875 -2.24609375 8.3984375 C-3 11 -3 11 -4 13 C-5.98 12.34 -7.96 11.68 -10 11 C-10 10.34 -10 9.68 -10 9 C-11.32 9 -12.64 9 -14 9 C-13.76953125 7.171875 -13.76953125 7.171875 -13 5 C-11.07421875 3.515625 -11.07421875 3.515625 -8.6875 2.25 C-7.51767578 1.60804688 -7.51767578 1.60804688 -6.32421875 0.953125 C-4 0 -4 0 0 0 Z " fill="#48567F" transform="translate(468,136)"/>
<path d="M0 0 C0.33 0.66 0.66 1.32 1 2 C0.01 3.485 0.01 3.485 -1 5 C-0.6878236 7.64632287 -0.6878236 7.64632287 0 10 C0.99 10.33 1.98 10.66 3 11 C3 11.99 3 12.98 3 14 C3.66 14 4.32 14 5 14 C4.67 16.64 4.34 19.28 4 22 C3.01 22.33 2.02 22.66 1 23 C-1.64 16.4 -4.28 9.8 -7 3 C-5.68 3 -4.36 3 -3 3 C-1.2488427 1.5833253 -1.2488427 1.5833253 0 0 Z " fill="#6E8DB0" transform="translate(451,155)"/>
<path d="M0 0 C2.6875 0.375 2.6875 0.375 5 2.5 C6.94952646 5.82141546 7.27659219 7.58797878 6.6875 11.375 C3.6875 13.375 3.6875 13.375 0.6875 13.375 C-0.6325 9.415 -1.9525 5.455 -3.3125 1.375 C-2.3125 0.375 -2.3125 0.375 0 0 Z " fill="#F2F2FF" transform="translate(508.3125,353.625)"/>
<path d="M0 0 C0.66 0.33 1.32 0.66 2 1 C-8.89 11.89 -19.78 22.78 -31 34 C-31.66 33.67 -32.32 33.34 -33 33 C-11.95668011 10.39144009 -11.95668011 10.39144009 -1 1 C-0.67 0.67 -0.34 0.34 0 0 Z " fill="#FBDD5F" transform="translate(75,178)"/>
<path d="M0 0 C0.66 0.33 1.32 0.66 2 1 C1.25 3.4375 1.25 3.4375 0 6 C-0.64195312 6.13535156 -1.28390625 6.27070313 -1.9453125 6.41015625 C-4.15166527 6.80242238 -4.15166527 6.80242238 -5.1953125 8.8125 C-5.50210937 9.534375 -5.80890625 10.25625 -6.125 11 C-7.81321185 14.90660592 -7.81321185 14.90660592 -10 16 C-10.99 13.03 -11.98 10.06 -13 7 C-10.88002166 5.80266012 -8.75486324 4.61701287 -6.625 3.4375 C-6.02171875 3.09525391 -5.4184375 2.75300781 -4.796875 2.40039062 C-3.23021759 1.53872905 -1.61709138 0.76281817 0 0 Z " fill="#6180A6" transform="translate(453,141)"/>
<path d="M0 0 C1.65 0.33 3.3 0.66 5 1 C3.02 5.95 1.04 10.9 -1 16 C-1.99 15.01 -2.98 14.02 -4 13 C-4 12.01 -4 11.02 -4 10 C-4.66 10 -5.32 10 -6 10 C-4.34832443 6.4213696 -2.21713508 3.25179812 0 0 Z " fill="#848DA9" transform="translate(433,94)"/>
<path d="M0 0 C-0.92296875 0.23074219 -1.8459375 0.46148437 -2.796875 0.69921875 C-3.41643066 0.85430908 -4.03598633 1.00939941 -4.67431641 1.16918945 C-6.07725633 1.5195119 -7.48058848 1.86826675 -8.88427734 2.21557617 C-13.03481534 3.2453242 -17.17378926 4.30797499 -21.3046875 5.4140625 C-22.18930664 5.64649658 -23.07392578 5.87893066 -23.98535156 6.1184082 C-25.71639464 6.57358351 -27.44505034 7.03795879 -29.17089844 7.51245117 C-33.80863166 8.71846677 -37.24282252 9.25472481 -42 8 C-38.32907778 5.85017489 -34.43064669 5.08409717 -30.3125 4.23828125 C-29.57298096 4.08336716 -28.83346191 3.92845306 -28.0715332 3.7688446 C-26.51215343 3.44416921 -24.95215825 3.12243737 -23.39160156 2.8034668 C-21.00613309 2.31375905 -18.62423562 1.80878443 -16.2421875 1.30273438 C-14.72415129 0.98864929 -13.20592784 0.67546755 -11.6875 0.36328125 C-10.62172729 0.1352758 -10.62172729 0.1352758 -9.53442383 -0.09733582 C-6.08378048 -0.78884412 -3.34331464 -1.28758438 0 0 Z " fill="#67644C" transform="translate(363,65)"/>
<path d="M0 0 C1.32 0.66 2.64 1.32 4 2 C3.2169216 4.14898232 2.42328757 6.29412095 1.625 8.4375 C1.18414063 9.63246094 0.74328125 10.82742187 0.2890625 12.05859375 C-1 15 -1 15 -3 16 C-4.86432216 12.85395635 -5.52098431 10.6468902 -5 7 C-2.04761905 2.04761905 -2.04761905 2.04761905 0 0 Z " fill="#8B8EA7" transform="translate(515,124)"/>
<path d="M0 0 C0 0.99 0 1.98 0 3 C0.33 3.99 0.66 4.98 1 6 C-1.31 8.31 -3.62 10.62 -6 13 C-3.03 13.495 -3.03 13.495 0 14 C0 14.33 0 14.66 0 15 C-1.62463842 15.05395478 -3.24978541 15.09277195 -4.875 15.125 C-5.77992188 15.14820313 -6.68484375 15.17140625 -7.6171875 15.1953125 C-10 15 -10 15 -12 13 C-9.22016156 9.39650572 -6.25858949 6.17503591 -3 3 C-2.401875 2.401875 -1.80375 1.80375 -1.1875 1.1875 C-0.795625 0.795625 -0.40375 0.40375 0 0 Z " fill="#FB7800" transform="translate(666,137)"/>
<path d="M0 0 C3.125 0.375 3.125 0.375 6 1 C5.67 1.66 5.34 2.32 5 3 C3.824375 3.1546875 3.824375 3.1546875 2.625 3.3125 C-0.2077843 3.75435532 -0.2077843 3.75435532 -1.6875 6.375 C-2.120625 7.24125 -2.55375 8.1075 -3 9 C-3.99 10.485 -3.99 10.485 -5 12 C-4.34 12 -3.68 12 -3 12 C-2.01 13.98 -1.02 15.96 0 18 C-0.99 18.33 -1.98 18.66 -3 19 C-3 18.01 -3 17.02 -3 16 C-4.32 15.67 -5.64 15.34 -7 15 C-7.875 13 -7.875 13 -8 10 C-5.81039291 6.26982244 -3.05117598 3.05117598 0 0 Z " fill="#6F88AA" transform="translate(457,150)"/>
<path d="M0 0 C2.82066016 3.18857235 3.82213241 5.73117787 4 10 C2.9375 12.3125 2.9375 12.3125 1 14 C-0.99047947 14.38613807 -2.99118802 14.72470826 -5 15 C-4.69964844 14.15695313 -4.39929688 13.31390625 -4.08984375 12.4453125 C-3.70957031 11.34960938 -3.32929688 10.25390625 -2.9375 9.125 C-2.55464844 8.03445312 -2.17179687 6.94390625 -1.77734375 5.8203125 C-0.68292153 3.0768238 -0.68292153 3.0768238 -2 1 C-1.34 0.67 -0.68 0.34 0 0 Z " fill="#4D84B3" transform="translate(444,76)"/>
<path d="M0 0 C0 0.66 0 1.32 0 2 C-3.26651375 3.03502777 -6.53877363 4.05053935 -9.8125 5.0625 C-10.74126953 5.35705078 -11.67003906 5.65160156 -12.62695312 5.95507812 C-13.51962891 6.22900391 -14.41230469 6.50292969 -15.33203125 6.78515625 C-16.15421143 7.04176025 -16.9763916 7.29836426 -17.82348633 7.56274414 C-20 8 -20 8 -23 7 C-22.34 7 -21.68 7 -21 7 C-21 6.01 -21 5.02 -21 4 C-18.62734939 3.32382476 -16.25244645 2.65891774 -13.875 2 C-12.87726563 1.71382813 -12.87726563 1.71382813 -11.859375 1.421875 C-7.8013795 0.30791545 -4.20314026 -0.20950232 0 0 Z " fill="#525141" transform="translate(323,73)"/>
<path d="M0 0 C-0.33 0.99 -0.66 1.98 -1 3 C-2.36125 2.87625 -2.36125 2.87625 -3.75 2.75 C-6.98012276 2.75674045 -6.98012276 2.75674045 -9.3125 4.375 C-11.85394226 8.32835463 -11.82376624 12.38267558 -12 17 C-14.68990329 12.96514506 -14.77993882 9.73771348 -14 5 C-10.33829516 -0.78785604 -6.25202943 -0.61294406 0 0 Z " fill="#FA8900" transform="translate(657,125)"/>
<path d="M0 0 C3 1 3 1 4.1875 3.375 C5 6 5 6 5 9 C4.34 9 3.68 9 3 9 C2.34 10.32 1.68 11.64 1 13 C-0.32 13 -1.64 13 -3 13 C-2.7834375 12.14535156 -2.566875 11.29070312 -2.34375 10.41015625 C-2.0653125 9.30542969 -1.786875 8.20070313 -1.5 7.0625 C-1.2215625 5.96035156 -0.943125 4.85820313 -0.65625 3.72265625 C0.03905373 1.30474496 0.03905373 1.30474496 0 0 Z " fill="#528BBB" transform="translate(524,107)"/>
<path d="M0 0 C0.66 0 1.32 0 2 0 C2.33 0.66 2.66 1.32 3 2 C3.99 2.33 4.98 2.66 6 3 C6 3.99 6 4.98 6 6 C6.99 6.33 7.98 6.66 9 7 C8.01 9.31 7.02 11.62 6 14 C2.67016949 11.30442292 1.45548306 7.95059687 0 4 C0 2.68 0 1.36 0 0 Z " fill="#5F88AF" transform="translate(423,105)"/>
<path d="M0 0 C2 3 2 3 2.0625 5 C0.2831685 8.34932989 -2.52511627 8.88096965 -6 10 C-8.4375 9.6875 -8.4375 9.6875 -10 9 C-9.3125 7.125 -9.3125 7.125 -8 5 C-6.35448038 4.28272222 -4.68577711 3.61674772 -3 3 C-1.22722741 1.47992158 -1.22722741 1.47992158 0 0 Z " fill="#709EC7" transform="translate(529,115)"/>
<path d="M0 0 C0.1953125 2.05078125 0.390625 4.1015625 0.5859375 6.15234375 C0.72257812 6.76207031 0.85921875 7.37179688 1 8 C1.66 8.33 2.32 8.66 3 9 C-0.96 10.98 -0.96 10.98 -5 13 C-6.39460991 10.21078018 -5.58060045 8.87922897 -4.6875 5.9375 C-4.42324219 5.03902344 -4.15898437 4.14054688 -3.88671875 3.21484375 C-3.01300452 1.03248265 -2.53582704 0 0 0 Z " fill="#6BA4CD" transform="translate(460,164)"/>
<path d="M0 0 C0 0.66 0 1.32 0 2 C2.475 2.99 2.475 2.99 5 4 C4.67 4.66 4.34 5.32 4 6 C3.34 5.67 2.68 5.34 2 5 C-2.05142119 4.74139865 -3.54337669 4.69558446 -7 7 C-7.66 7 -8.32 7 -9 7 C-9.99 7.66 -10.98 8.32 -12 9 C-11.11333936 5.01002713 -10.61724846 3.40255334 -7.125 1.125 C-4 0 -4 0 0 0 Z " fill="#606E92" transform="translate(458,145)"/>
<path d="M0 0 C0 0.66 0 1.32 0 2 C2.31 2.33 4.62 2.66 7 3 C6.67 3.99 6.34 4.98 6 6 C5.13375 5.649375 4.2675 5.29875 3.375 4.9375 C-0.41656405 3.88428776 -2.25848865 3.8307777 -6 5 C-8.19617258 6.52428417 -10.0309913 8.17163478 -12 10 C-10.35120321 3.40481284 -7.259327 -0.82963737 0 0 Z " fill="#536188" transform="translate(433,86)"/>
<path d="M0 0 C3.39419263 3.28470255 6.61907735 6.70697152 9.8125 10.1875 C10.99779297 11.47720703 10.99779297 11.47720703 12.20703125 12.79296875 C14 15 14 15 14 17 C10.19827839 15.42626408 7.75658012 13.02378358 4.875 10.125 C4.00617188 9.26132812 3.13734375 8.39765625 2.2421875 7.5078125 C0.31482046 5.35211626 -0.90515161 3.64485847 -2 1 C-1.34 0.67 -0.68 0.34 0 0 Z " fill="#524F41" transform="translate(91,347)"/>
<path d="M0 0 C0.66 0.66 1.32 1.32 2 2 C1.875 4.5 1.875 4.5 1 7 C-2.2955753 9.66181082 -5.93339881 9.15640774 -10 9 C-9.67 8.01 -9.34 7.02 -9 6 C-8.05125 5.690625 -7.1025 5.38125 -6.125 5.0625 C-2.72660269 3.90704491 -1.80585624 3.0097604 0 0 Z " fill="#6D9CC6" transform="translate(448,85)"/>
<path d="M0 0 C2.61047801 1.305239 2.68066423 2.35826574 3.625 5.0625 C3.88539063 5.79597656 4.14578125 6.52945313 4.4140625 7.28515625 C4.60742188 7.85105469 4.80078125 8.41695312 5 9 C3.02 9.99 1.04 10.98 -1 12 C-1.66 11.34 -2.32 10.68 -3 10 C-2.79296875 8.125 -2.79296875 8.125 -2.1875 6 C-1.89939453 4.948125 -1.89939453 4.948125 -1.60546875 3.875 C-1 2 -1 2 0 0 Z " fill="#62A0CB" transform="translate(514,137)"/>
<path d="M0 0 C2 2 2 2 2 5 C3.65 5.33 5.3 5.66 7 6 C4.45368965 8.97069541 1.57769851 10.4775751 -2 12 C-2.66 11.67 -3.32 11.34 -4 11 C-2.68 7.37 -1.36 3.74 0 0 Z " fill="#64A0CA" transform="translate(432,108)"/>
<path d="M0 0 C-19.00486224 4.60636143 -19.00486224 4.60636143 -29 3 C-29 2.67 -29 2.34 -29 2 C-24.91813323 1.46721367 -20.83435345 0.95084629 -16.75 0.4375 C-15.59113281 0.28603516 -14.43226563 0.13457031 -13.23828125 -0.02148438 C-12.12324219 -0.16005859 -11.00820313 -0.29863281 -9.859375 -0.44140625 C-8.83295898 -0.57232666 -7.80654297 -0.70324707 -6.74902344 -0.83813477 C-4.19301503 -0.98863508 -2.41329977 -0.79012848 0 0 Z " fill="#DACE9A" transform="translate(384,61)"/>
<path d="M0 0 C2.8992226 0.46761655 3.86675182 0.86675182 6 3 C5.625 5.125 5.625 5.125 5 7 C2.625 7.125 2.625 7.125 0 7 C-0.66 6.34 -1.32 5.68 -2 5 C-1.46428571 1.46428571 -1.46428571 1.46428571 0 0 Z " fill="#ECECFF" transform="translate(636,270)"/>
<path d="M0 0 C2.8992226 0.46761655 3.86675182 0.86675182 6 3 C5.625 5.125 5.625 5.125 5 7 C2.625 7.125 2.625 7.125 0 7 C-0.66 6.34 -1.32 5.68 -2 5 C-1.46428571 1.46428571 -1.46428571 1.46428571 0 0 Z " fill="#EAEAFF" transform="translate(651,252)"/>
<path d="M0 0 C1.32 0.33 2.64 0.66 4 1 C4 1.66 4 2.32 4 3 C4.66 3 5.32 3 6 3 C6.33 4.98 6.66 6.96 7 9 C5.68 9.33 4.36 9.66 3 10 C0.96564469 6.27034861 0 4.33094958 0 0 Z " fill="#5A8EB8" transform="translate(506,140)"/>
<path d="M0 0 C-0.66 2.31 -1.32 4.62 -2 7 C-4.97 6.505 -4.97 6.505 -8 6 C-8 4.68 -8 3.36 -8 2 C-4.91190305 0.23537317 -3.76687864 0 0 0 Z " fill="#3C4570" transform="translate(468,136)"/>
<path d="M0 0 C0 0.99 0 1.98 0 3 C-0.99 3.495 -0.99 3.495 -2 4 C-1.34 2.68 -0.68 1.36 0 0 Z M-5 5 C-4.01 5.495 -4.01 5.495 -3 6 C-3.99 6.495 -3.99 6.495 -5 7 C-5 6.34 -5 5.68 -5 5 Z M-8 8 C-5.525 8.99 -5.525 8.99 -3 10 C-1.6875 13.125 -1.6875 13.125 -1 16 C-1.66 16 -2.32 16 -3 16 C-3.33 16.66 -3.66 17.32 -4 18 C-5.32 14.7 -6.64 11.4 -8 8 Z " fill="#7A91B0" transform="translate(509,124)"/>
<path d="M0 0 C1.375 2.0625 1.375 2.0625 2 4 C1 5 1 5 -1.5625 5.0625 C-2.7690625 5.0315625 -2.7690625 5.0315625 -4 5 C-4.268125 4.360625 -4.53625 3.72125 -4.8125 3.0625 C-5.88667752 0.66868314 -5.88667752 0.66868314 -9 0 C-5.44712603 -1.18429132 -3.58589143 -0.99184231 0 0 Z " fill="#EAEAFF" transform="translate(277,403)"/>
<path d="M0 0 C1 3 1 3 0.0625 5.1875 C-2.35162213 7.30900126 -3.07685859 7.25551532 -6.1875 7.25 C-7.445625 7.1675 -8.70375 7.085 -10 7 C-9.67 6.01 -9.34 5.02 -9 4 C-6.68152126 3.2833793 -4.34680297 2.61757973 -2 2 C-1.34 1.34 -0.68 0.68 0 0 Z " fill="#699BC5" transform="translate(473,144)"/>
<path d="M0 0 C-0.8125 3.4375 -0.8125 3.4375 -2 7 C-2.99 7.33 -3.98 7.66 -5 8 C-5.66 7.67 -6.32 7.34 -7 7 C-6.625 4.0625 -6.625 4.0625 -6 1 C-4 0 -4 0 0 0 Z " fill="#3B436E" transform="translate(525,108)"/>
<path d="M0 0 C4.23169259 0.37615045 6.8083482 1.17661571 10 4 C8.68 4.33 7.36 4.66 6 5 C6 4.34 6 3.68 6 3 C5.071875 3.33 4.14375 3.66 3.1875 4 C0 5 0 5 -3 5 C-1.125 1.125 -1.125 1.125 0 0 Z " fill="#657396" transform="translate(429,89)"/>
<path d="M0 0 C-0.99 0.33 -1.98 0.66 -3 1 C-3.33 1.66 -3.66 2.32 -4 3 C-6.28515625 3.6328125 -6.28515625 3.6328125 -9.0625 4.125 C-9.98160156 4.29257813 -10.90070313 4.46015625 -11.84765625 4.6328125 C-12.91306641 4.81457031 -12.91306641 4.81457031 -14 5 C-14 3.68 -14 2.36 -14 1 C-12.41913952 0.63495397 -10.83516093 0.28339494 -9.25 -0.0625 C-8.36828125 -0.25972656 -7.4865625 -0.45695312 -6.578125 -0.66015625 C-4.01320972 -0.99825872 -2.42908361 -0.81158635 0 0 Z " fill="#F8E737" transform="translate(329,69)"/>
<path d="M0 0 C-0.33 0.99 -0.66 1.98 -1 3 C-3.28515625 3.94921875 -3.28515625 3.94921875 -6.0625 4.6875 C-7.44115234 5.06455078 -7.44115234 5.06455078 -8.84765625 5.44921875 C-9.55792969 5.63097656 -10.26820313 5.81273438 -11 6 C-10.375 3.625 -10.375 3.625 -9 1 C-5.37169613 -0.69835501 -3.84489875 -1.28163292 0 0 Z " fill="#444332" transform="translate(288,83)"/>
<path d="M0 0 C0.66 0.33 1.32 0.66 2 1 C2 1.99 2 2.98 2 4 C1.2575 4.28875 0.515 4.5775 -0.25 4.875 C-2.56739797 5.82302644 -4.77917115 6.84845911 -7 8 C-7.33 6.68 -7.66 5.36 -8 4 C-6.71349294 3.30289269 -5.42059335 2.61757124 -4.125 1.9375 C-3.40570313 1.55464844 -2.68640625 1.17179687 -1.9453125 0.77734375 C-1.30335938 0.52082031 -0.66140625 0.26429687 0 0 Z " fill="#6581A5" transform="translate(505,116)"/>
<path d="M0 0 C1.5625 1.1875 1.5625 1.1875 3 3 C3 5.4375 3 5.4375 2 8 C-0.5625 10.3125 -0.5625 10.3125 -3 12 C-2.01 8.7 -1.02 5.4 0 2 C-0.66 1.67 -1.32 1.34 -2 1 C-1.34 0.67 -0.68 0.34 0 0 Z " fill="#4B81B1" transform="translate(468,134)"/>
<path d="M0 0 C0.66 0.33 1.32 0.66 2 1 C2.8125 4.375 2.8125 4.375 3 8 C1.5625 9.9375 1.5625 9.9375 0 11 C-1.84651134 7.88401212 -2.38079379 5.61754103 -2 2 C-1.34 1.34 -0.68 0.68 0 0 Z " fill="#7C8BAA" transform="translate(512,129)"/>
<path d="M0 0 C2.31 0 4.62 0 7 0 C7 1.32 7 2.64 7 4 C5.02 4.33 3.04 4.66 1 5 C0.67 3.35 0.34 1.7 0 0 Z " fill="#E8E8FF" transform="translate(422,389)"/>
<path d="M0 0 C0.86625 0.309375 1.7325 0.61875 2.625 0.9375 C2.295 1.5975 1.965 2.2575 1.625 2.9375 C0.51125 3.06125 0.51125 3.06125 -0.625 3.1875 C-4.67126427 4.29102662 -5.90061966 6.61476068 -8.375 9.9375 C-8.705 8.9475 -9.035 7.9575 -9.375 6.9375 C-7.10975456 2.74194814 -4.88577658 -0.09047734 0 0 Z " fill="#7983A2" transform="translate(460.375,150.0625)"/>
<path d="M0 0 C1.65 0.33 3.3 0.66 5 1 C5 1.66 5 2.32 5 3 C7.64 2.67 10.28 2.34 13 2 C13 2.66 13 3.32 13 4 C11.41870971 4.22331199 9.83478911 4.42804644 8.25 4.625 C6.92742187 4.79902344 6.92742187 4.79902344 5.578125 4.9765625 C2.77140122 5.00207817 1.36615134 4.44843844 -1 3 C-0.67 2.01 -0.34 1.02 0 0 Z " fill="#C1C1FF" transform="translate(273,392)"/>
<path d="M0 0 C2.64 0.33 5.28 0.66 8 1 C7.67 1.66 7.34 2.32 7 3 C6.319375 2.87625 5.63875 2.7525 4.9375 2.625 C0.51142186 3.19003125 -1.8748453 5.9739136 -5 9 C-3.7508258 5.54074837 -2.32472205 2.85306797 0 0 Z " fill="#747F9E" transform="translate(512,122)"/>
<path d="M0 0 C0.598125 0.20625 1.19625 0.4125 1.8125 0.625 C1.4825 0.955 1.1525 1.285 0.8125 1.625 C3.7825 2.12 3.7825 2.12 6.8125 2.625 C6.8125 2.955 6.8125 3.285 6.8125 3.625 C5.18786158 3.67895478 3.56271459 3.71777195 1.9375 3.75 C1.03257812 3.77320313 0.12765625 3.79640625 -0.8046875 3.8203125 C-3.1875 3.625 -3.1875 3.625 -5.1875 1.625 C-2.1875 -0.375 -2.1875 -0.375 0 0 Z " fill="#FC7D23" transform="translate(659.1875,148.375)"/>
<path d="M0 0 C0.33 1.32 0.66 2.64 1 4 C-1.3125 6.0625 -1.3125 6.0625 -4 8 C-4.99 7.67 -5.98 7.34 -7 7 C-7 6.34 -7 5.68 -7 5 C-5.46875 3.7109375 -5.46875 3.7109375 -3.5 2.375 C-2.8503125 1.92898437 -2.200625 1.48296875 -1.53125 1.0234375 C-1.0259375 0.68570313 -0.520625 0.34796875 0 0 Z " fill="#52729B" transform="translate(505,119)"/>
<path d="M0 0 C0.66 0.33 1.32 0.66 2 1 C1.67 2.32 1.34 3.64 1 5 C2.32 5.33 3.64 5.66 5 6 C5 6.66 5 7.32 5 8 C-0.75 7.125 -0.75 7.125 -3 6 C-2.625 3.5625 -2.625 3.5625 -2 1 C-1.34 0.67 -0.68 0.34 0 0 Z " fill="#4C577F" transform="translate(517,110)"/>
<path d="M0 0 C-1.26117725 3.88862987 -2.45264167 5.89375599 -6 8 C-6.66 8 -7.32 8 -8 8 C-6.65580512 3.85539913 -4.87800266 0 0 0 Z " fill="#FA8B00" transform="translate(664,138)"/>
<path d="M0 0 C0 4.13781054 -1.71509607 5.20919996 -4.5 8.1875 C-5.3353125 9.08855469 -6.170625 9.98960937 -7.03125 10.91796875 C-7.6809375 11.60503906 -8.330625 12.29210937 -9 13 C-9.33 12.34 -9.66 11.68 -10 11 C-8.89718873 9.72799029 -7.79269231 8.45744147 -6.6875 7.1875 C-6.07261719 6.47980469 -5.45773437 5.77210938 -4.82421875 5.04296875 C-3.26665665 3.29863261 -1.67341125 1.63221959 0 0 Z " fill="#7C86CB" transform="translate(567,287)"/>
<path d="M0 0 C1.32 0.99 2.64 1.98 4 3 C3.67 4.32 3.34 5.64 3 7 C1.68 7.33 0.36 7.66 -1 8 C-2 6 -2 6 -1.0625 2.875 C-0.5365625 1.451875 -0.5365625 1.451875 0 0 Z " fill="#EBEBFF" transform="translate(660,257)"/>
<path d="M0 0 C-1 2 -1 2 -3 3 C-3.66 3.66 -4.32 4.32 -5 5 C-5.99 4.67 -6.98 4.34 -8 4 C-5.97675095 -0.48005146 -4.79569304 -1.43870791 0 0 Z " fill="#F9A800" transform="translate(656,130)"/>
<path d="M0 0 C0.6875 1.75 0.6875 1.75 1 4 C-0.0625 6.1875 -0.0625 6.1875 -2 8 C-5.1875 8.75 -5.1875 8.75 -8 9 C-7.67 8.34 -7.34 7.68 -7 7 C-6.01 7 -5.02 7 -4 7 C-3.71125 6.21625 -3.4225 5.4325 -3.125 4.625 C-2 2 -2 2 0 0 Z " fill="#5990BE" transform="translate(447,82)"/>
<path d="M0 0 C0.66 0 1.32 0 2 0 C3.47265625 1.8984375 3.47265625 1.8984375 5.0625 4.375 C5.85333984 5.59316406 5.85333984 5.59316406 6.66015625 6.8359375 C8 9 8 9 9 11 C8.34 11.66 7.68 12.32 7 13 C5.83072457 11.02237345 4.66464427 9.04285742 3.5 7.0625 C2.8503125 5.96035156 2.200625 4.85820312 1.53125 3.72265625 C0 1 0 1 0 0 Z " fill="#7C795F" transform="translate(20,375)"/>
<path d="M0 0 C-1.051875 0.5775 -2.10375 1.155 -3.1875 1.75 C-6.3786482 3.5661006 -9.19489535 5.61991121 -12 8 C-11.11195098 4.00377939 -10.58485823 2.39414359 -7.125 0.0625 C-4.05670368 -0.98072075 -2.91939719 -1.23512958 0 0 Z " fill="#516A93" transform="translate(458,146)"/>
<path d="M0 0 C0.66 0.33 1.32 0.66 2 1 C1.1875 3.4375 1.1875 3.4375 0 6 C-0.99 6.33 -1.98 6.66 -3 7 C-3 6.34 -3 5.68 -3 5 C-3.66 4.67 -4.32 4.34 -5 4 C-3.36587557 2.29159719 -2.13093906 1.06546953 0 0 Z " fill="#6C7D9F" transform="translate(453,141)"/>
<path d="M0 0 C0.33 0.99 0.66 1.98 1 3 C-1 6 -1 6 -2.9453125 6.51171875 C-3.66460938 6.56972656 -4.38390625 6.62773438 -5.125 6.6875 C-7.043125 6.8421875 -7.043125 6.8421875 -9 7 C-8 5 -8 5 -5.625 4.0625 C-3.04017895 3.01626291 -1.7953831 2.07886465 0 0 Z " fill="#6597C3" transform="translate(529,115)"/>
<path d="M0 0 C2.29013653 3.4352048 2.17842973 4.985331 2 9 C1.01 8.67 0.02 8.34 -1 8 C-1.33 5.69 -1.66 3.38 -2 1 C-1.34 0.67 -0.68 0.34 0 0 Z " fill="#74AAD1" transform="translate(435,105)"/>
<path d="M0 0 C2.73370045 2.36092311 3.91097645 4.56538728 5 8 C5 9.32 5 10.64 5 12 C4.34 12 3.68 12 3 12 C2.49440092 10.56445975 1.9957251 9.1264798 1.5 7.6875 C1.2215625 6.88699219 0.943125 6.08648437 0.65625 5.26171875 C0 3 0 3 0 0 Z " fill="#383226" transform="translate(708,175)"/>
<path d="M0 0 C3.0625 0.1875 3.0625 0.1875 5.0625 2.1875 C3.9178125 2.0946875 3.9178125 2.0946875 2.75 2 C-0.41530368 2.22083514 -0.92236217 2.88448534 -2.9375 5.1875 C-3.5975 5.1875 -4.2575 5.1875 -4.9375 5.1875 C-3.82120474 0.24390669 -3.82120474 0.24390669 0 0 Z " fill="#6C799A" transform="translate(456.9375,148.8125)"/>
<path d="M0 0 C0.78375 0.04125 1.5675 0.0825 2.375 0.125 C2.375 0.785 2.375 1.445 2.375 2.125 C3.365 2.455 4.355 2.785 5.375 3.125 C4.281875 3.08375 3.18875 3.0425 2.0625 3 C-1.71392229 2.80425334 -1.71392229 2.80425334 -4.625 5.125 C-4.625 1.22254579 -3.95783286 0.18846823 0 0 Z " fill="#757F9E" transform="translate(432.625,91.875)"/>
<path d="M0 0 C2.0625 0.4375 2.0625 0.4375 4 1 C3.34 2.65 2.68 4.3 2 6 C0.68 5.67 -0.64 5.34 -2 5 C-1.125 1.125 -1.125 1.125 0 0 Z " fill="#2B3463" transform="translate(440,78)"/>
<path d="M0 0 C1.98 0 3.96 0 6 0 C5.67 1.32 5.34 2.64 5 4 C3.35 4 1.7 4 0 4 C0 2.68 0 1.36 0 0 Z " fill="#F3F3FF" transform="translate(421,380)"/>
<path d="M0 0 C0.99 0.66 1.98 1.32 3 2 C2.67 3.32 2.34 4.64 2 6 C0.35 5.67 -1.3 5.34 -3 5 C-2.01 3.35 -1.02 1.7 0 0 Z " fill="#EAEAFF" transform="translate(645,277)"/>
<path d="M0 0 C0.99 0.33 1.98 0.66 3 1 C3 2.65 3 4.3 3 6 C2.01 6.33 1.02 6.66 0 7 C-0.38133299 5.0085944 -0.71325582 3.00720923 -1 1 C-0.67 0.67 -0.34 0.34 0 0 Z " fill="#F6F6FF" transform="translate(664,232)"/>
<path d="M0 0 C0.99 0.33 1.98 0.66 3 1 C3.36923077 5.55384615 3.36923077 5.55384615 1.5 7.8125 C1.005 8.204375 0.51 8.59625 0 9 C-0.66 8.67 -1.32 8.34 -2 8 C-1.505 6.2984375 -1.505 6.2984375 -1 4.5625 C0.04504273 1.45623361 0.04504273 1.45623361 0 0 Z " fill="#4A81B1" transform="translate(524,107)"/>
<path d="M0 0 C0.66 0 1.32 0 2 0 C3.2890625 1.53125 3.2890625 1.53125 4.625 3.5 C5.07101563 4.1496875 5.51703125 4.799375 5.9765625 5.46875 C6.31429687 5.9740625 6.65203125 6.479375 7 7 C4.625 6.6875 4.625 6.6875 2 6 C0 3 0 3 0 0 Z " fill="#363530" transform="translate(28,386)"/>
<path d="M0 0 C0 0.66 0 1.32 0 2 C-1.75 3.5078125 -1.75 3.5078125 -4 5.125 C-4.7425 5.66382812 -5.485 6.20265625 -6.25 6.7578125 C-6.8275 7.16773437 -7.405 7.57765625 -8 8 C-6.52980132 2.36423841 -6.52980132 2.36423841 -4 0.625 C-2 0 -2 0 0 0 Z " fill="#506C95" transform="translate(429,88)"/>
<path d="M0 0 C4 4.75 4 4.75 4 7 C2.68 7.33 1.36 7.66 0 8 C0 5.36 0 2.72 0 0 Z " fill="#F0F0FF" transform="translate(451,375)"/>
<path d="M0 0 C3.33557632 2.9905167 5.15083921 5.93184627 7 10 C6.01 10 5.02 10 4 10 C3.32845067 8.71086513 2.66291141 7.41859796 2 6.125 C1.62875 5.40570313 1.2575 4.68640625 0.875 3.9453125 C0 2 0 2 0 0 Z " fill="#FCDD1F" transform="translate(691,147)"/>
<path d="M0 0 C1.32 0.33 2.64 0.66 4 1 C4 1.66 4 2.32 4 3 C4.66 3 5.32 3 6 3 C6 3.66 6 4.32 6 5 C3.03 4.505 3.03 4.505 0 4 C0 2.68 0 1.36 0 0 Z " fill="#5380AB" transform="translate(506,140)"/>
<path d="M0 0 C2.31 0.33 4.62 0.66 7 1 C3.81237635 3.12508244 1.73487777 3.5020163 -2 4 C-1.34 3.67 -0.68 3.34 0 3 C0 2.01 0 1.02 0 0 Z " fill="#5E5D54" transform="translate(302,77)"/>
<path d="M0 0 C1.32 0.66 2.64 1.32 4 2 C3.67 2.99 3.34 3.98 3 5 C2.01 5.33 1.02 5.66 0 6 C-1.24546405 3.50907189 -0.7767578 2.58919267 0 0 Z " fill="#569AC8" transform="translate(455,171)"/>
<path d="M0 0 C1.98 0.99 1.98 0.99 4 2 C3.67 3.65 3.34 5.3 3 7 C2.34 7 1.68 7 1 7 C0.67 4.69 0.34 2.38 0 0 Z " fill="#5E8FB8" transform="translate(451,171)"/>
<path d="M0 0 C2.475 0.495 2.475 0.495 5 1 C5.33 1.99 5.66 2.98 6 4 C3.03 3.505 3.03 3.505 0 3 C0 2.01 0 1.02 0 0 Z " fill="#2C3867" transform="translate(460,139)"/>
<path d="M0 0 C0.33 0.66 0.66 1.32 1 2 C-0.65 3.65 -2.3 5.3 -4 7 C-4.33 5.68 -4.66 4.36 -5 3 C-3.35 2.01 -1.7 1.02 0 0 Z " fill="#5E7A9F" transform="translate(426,94)"/>
<path d="M0 0 C0.66 0.33 1.32 0.66 2 1 C0.25 3.0625 0.25 3.0625 -2 5 C-4.25 4.75 -4.25 4.75 -6 4 C-4.03617993 2.49440461 -2.21736634 1.10868317 0 0 Z " fill="#8591AD" transform="translate(429,83)"/>
<path d="M0 0 C-0.99 0.495 -0.99 0.495 -2 1 C-2 1.66 -2 2.32 -2 3 C-3.98 3 -5.96 3 -8 3 C-8 2.34 -8 1.68 -8 1 C-5.29120665 -0.35439668 -2.99066732 -0.06501451 0 0 Z " fill="#353425" transform="translate(315,75)"/>
<path d="" fill="#FFFFFF" transform="translate(0,0)"/>
<path d="" fill="#FFFFFF" transform="translate(0,0)"/>
</svg>
